<svg width="250" height="1024" viewBox="0 0 250 1024" fill="none" xmlns="http://www.w3.org/2000/svg">
<g opacity="0.2">
<path opacity="0.14" d="M1488.18 -72.7208C1419.32 -112.86 1507.62 339.736 1214.99 612.448C922.354 885.161 230.098 158.176 -312.225 480.5" stroke="#0B7CC2" stroke-width="2" stroke-linecap="round" stroke-linejoin="round"/>
<path opacity="0.14" d="M1493.95 -53.1623C1421.01 -97.5464 1494.43 325.778 1200.97 605.186C907.503 884.593 232.093 171.57 -304.945 499.566" stroke="#0B7CC2" stroke-width="2" stroke-linecap="round" stroke-linejoin="round"/>
<path opacity="0.14" d="M1499.71 -33.6035C1422.7 -82.2304 1481.24 311.819 1186.95 597.923C892.649 884.027 234.088 184.966 -297.666 518.632" stroke="#0B7CC2" stroke-width="2" stroke-linecap="round" stroke-linejoin="round"/>
<path opacity="0.14" d="M1505.48 -14.045C1424.4 -66.9176 1468.05 297.861 1172.93 590.66C877.801 883.459 236.086 198.357 -290.385 537.698" stroke="#0B7CC2" stroke-width="2" stroke-linecap="round" stroke-linejoin="round"/>
<path opacity="0.14" d="M1511.25 5.51303C1426.08 -51.6024 1454.86 283.903 1158.91 583.396C862.953 882.889 238.083 211.753 -283.104 556.763" stroke="#0B7CC2" stroke-width="2" stroke-linecap="round" stroke-linejoin="round"/>
<path opacity="0.14" d="M1517.01 25.0717C1427.78 -36.2886 1441.67 269.944 1144.89 576.136C848.1 882.328 240.078 225.149 -275.822 575.83" stroke="#0B7CC2" stroke-width="2" stroke-linecap="round" stroke-linejoin="round"/>
<path opacity="0.14" d="M1522.78 44.6292C1429.47 -20.9739 1428.48 255.986 1130.86 568.874C833.245 881.762 242.073 238.542 -268.545 594.896" stroke="#0B7CC2" stroke-width="2" stroke-linecap="round" stroke-linejoin="round"/>
<path opacity="0.14" d="M1528.54 64.188C1431.16 -5.66075 1415.29 242.028 1116.84 561.609C818.401 881.19 244.07 251.936 -261.263 613.962" stroke="#0B7CC2" stroke-width="2" stroke-linecap="round" stroke-linejoin="round"/>
<path opacity="0.14" d="M1534.31 83.7469C1432.85 9.65374 1402.1 228.07 1102.82 554.347C803.547 880.625 246.065 265.33 -253.983 633.028" stroke="#0B7CC2" stroke-width="2" stroke-linecap="round" stroke-linejoin="round"/>
<path opacity="0.14" d="M1540.07 103.305C1434.54 24.9693 1388.91 214.112 1088.8 547.084C788.698 880.056 248.062 278.725 -246.704 652.094" stroke="#0B7CC2" stroke-width="2" stroke-linecap="round" stroke-linejoin="round"/>
<path opacity="0.14" d="M1545.84 122.861C1436.23 40.2827 1375.72 200.151 1074.78 539.818C773.849 879.486 250.057 292.121 -239.423 671.158" stroke="#0B7CC2" stroke-width="2" stroke-linecap="round" stroke-linejoin="round"/>
<path opacity="0.14" d="M1551.6 142.421C1437.92 55.5976 1362.52 186.192 1060.76 532.557C758.999 878.921 252.053 305.514 -232.143 690.225" stroke="#0B7CC2" stroke-width="2" stroke-linecap="round" stroke-linejoin="round"/>
<path opacity="0.14" d="M1557.37 161.981C1439.61 70.9144 1349.34 172.235 1046.75 525.296C744.158 878.357 254.049 318.91 -224.862 709.292" stroke="#0B7CC2" stroke-width="2" stroke-linecap="round" stroke-linejoin="round"/>
<path opacity="0.14" d="M1563.13 181.539C1441.3 86.2265 1336.14 158.276 1032.72 518.033C729.299 877.79 256.045 332.304 -217.585 728.354" stroke="#0B7CC2" stroke-width="2" stroke-linecap="round" stroke-linejoin="round"/>
<path opacity="0.14" d="M1568.89 201.1C1442.99 101.545 1322.95 144.32 1018.7 510.773C714.446 877.225 258.04 345.699 -210.302 747.424" stroke="#0B7CC2" stroke-width="2" stroke-linecap="round" stroke-linejoin="round"/>
<path opacity="0.14" d="M1574.66 220.655C1444.68 116.856 1309.76 130.359 1004.68 503.507C699.605 876.654 260.035 359.093 -203.021 766.489" stroke="#0B7CC2" stroke-width="2" stroke-linecap="round" stroke-linejoin="round"/>
<path opacity="0.14" d="M1580.43 240.215C1446.37 132.173 1296.57 116.402 990.66 496.245C684.749 876.088 262.032 372.488 -195.737 785.553" stroke="#0B7CC2" stroke-width="2" stroke-linecap="round" stroke-linejoin="round"/>
<path opacity="0.14" d="M1586.19 259.774C1448.07 147.487 1283.38 102.443 976.638 488.982C669.897 875.52 264.029 385.882 -188.462 804.621" stroke="#0B7CC2" stroke-width="2" stroke-linecap="round" stroke-linejoin="round"/>
<path opacity="0.14" d="M1591.96 279.332C1449.75 162.801 1270.19 88.4847 962.618 481.721C655.048 874.957 266.025 399.277 -181.18 823.688" stroke="#0B7CC2" stroke-width="2" stroke-linecap="round" stroke-linejoin="round"/>
<path opacity="0.14" d="M1597.72 298.89C1451.45 178.116 1256.99 74.5282 948.598 474.46C640.202 874.392 268.02 412.673 -173.899 842.756" stroke="#0B7CC2" stroke-width="2" stroke-linecap="round" stroke-linejoin="round"/>
<path opacity="0.14" d="M1603.49 318.449C1453.13 193.429 1243.81 60.5685 934.578 467.195C625.348 873.822 270.018 426.065 -166.623 861.821" stroke="#0B7CC2" stroke-width="2" stroke-linecap="round" stroke-linejoin="round"/>
<path opacity="0.14" d="M1609.25 338.008C1454.83 208.745 1230.62 46.611 920.558 459.932C610.499 873.254 272.012 439.462 -159.34 880.886" stroke="#0B7CC2" stroke-width="2" stroke-linecap="round" stroke-linejoin="round"/>
<path opacity="0.14" d="M1615.02 357.566C1456.52 224.059 1217.42 32.6521 906.535 452.67C595.645 872.687 274.006 452.853 -152.06 899.951" stroke="#0B7CC2" stroke-width="2" stroke-linecap="round" stroke-linejoin="round"/>
<path opacity="0.14" d="M1620.79 377.123C1458.21 239.373 1204.24 18.6923 892.515 445.405C580.795 872.118 276.004 466.249 -144.777 919.019" stroke="#0B7CC2" stroke-width="2" stroke-linecap="round" stroke-linejoin="round"/>
<path opacity="0.14" d="M1626.55 396.681C1459.9 254.688 1191.04 4.73371 878.495 438.144C565.945 871.554 277.997 479.644 -137.499 938.084" stroke="#0B7CC2" stroke-width="2" stroke-linecap="round" stroke-linejoin="round"/>
<path opacity="0.14" d="M1632.32 416.24C1461.59 270.001 1177.85 -9.22386 864.474 430.881C551.095 870.985 279.994 493.038 -130.218 957.151" stroke="#0B7CC2" stroke-width="2" stroke-linecap="round" stroke-linejoin="round"/>
<path opacity="0.14" d="M1638.08 435.799C1463.28 285.317 1164.66 -23.1834 850.453 423.619C536.24 870.421 281.99 506.434 -122.938 976.215" stroke="#0B7CC2" stroke-width="2" stroke-linecap="round" stroke-linejoin="round"/>
<path opacity="0.14" d="M1643.85 455.357C1464.97 300.631 1151.47 -37.1373 836.433 416.355C521.394 869.846 283.984 519.827 -115.657 995.28" stroke="#0B7CC2" stroke-width="2" stroke-linecap="round" stroke-linejoin="round"/>
<path opacity="0.14" d="M1649.61 474.915C1466.66 315.945 1138.28 -51.0985 822.413 409.09C506.547 869.278 285.983 533.222 -108.377 1014.35" stroke="#0B7CC2" stroke-width="2" stroke-linecap="round" stroke-linejoin="round"/>
<path opacity="0.14" d="M1655.38 494.474C1468.35 331.261 1125.09 -65.057 808.391 401.83C491.693 868.717 287.978 546.618 -101.098 1033.41" stroke="#0B7CC2" stroke-width="2" stroke-linecap="round" stroke-linejoin="round"/>
<path opacity="0.14" d="M1661.14 514.032C1470.04 346.574 1111.9 -79.0167 794.371 394.568C476.845 868.153 289.972 560.011 -93.8168 1052.48" stroke="#0B7CC2" stroke-width="2" stroke-linecap="round" stroke-linejoin="round"/>
<path opacity="0.14" d="M1666.91 533.591C1471.74 361.892 1098.71 -92.9747 780.354 387.307C462.002 867.589 291.971 573.409 -86.539 1071.55" stroke="#0B7CC2" stroke-width="2" stroke-linecap="round" stroke-linejoin="round"/>
<path opacity="0.14" d="M1672.67 553.149C1473.42 377.206 1085.52 -106.933 766.33 380.043C447.144 867.019 293.969 586.797 -79.2548 1090.61" stroke="#0B7CC2" stroke-width="2" stroke-linecap="round" stroke-linejoin="round"/>
<path opacity="0.14" d="M1678.44 572.707C1475.12 392.518 1072.33 -120.888 752.309 372.779C432.293 866.447 295.96 600.195 -71.976 1109.68" stroke="#0B7CC2" stroke-width="2" stroke-linecap="round" stroke-linejoin="round"/>
<path opacity="0.14" d="M1684.2 592.266C1476.81 407.834 1059.13 -134.85 738.287 365.519C417.442 865.888 297.956 613.59 -64.6962 1128.74" stroke="#0B7CC2" stroke-width="2" stroke-linecap="round" stroke-linejoin="round"/>
<path opacity="0.14" d="M1689.97 611.824C1478.5 423.147 1045.94 -148.808 724.267 358.254C402.592 865.315 299.952 626.984 -57.4173 1147.81" stroke="#0B7CC2" stroke-width="2" stroke-linecap="round" stroke-linejoin="round"/>
<path opacity="0.14" d="M1695.73 631.384C1480.19 438.464 1032.75 -162.762 710.244 350.994C387.739 864.75 301.946 640.376 -50.1357 1166.88" stroke="#0B7CC2" stroke-width="2" stroke-linecap="round" stroke-linejoin="round"/>
<path opacity="0.14" d="M1701.5 650.941C1481.88 453.777 1019.56 -176.724 696.23 343.733C372.9 864.189 303.944 653.772 -42.8551 1185.94" stroke="#0B7CC2" stroke-width="2" stroke-linecap="round" stroke-linejoin="round"/>
</g>
</svg>
