<svg width="20" height="18" viewBox="0 0 20 18" fill="none" xmlns="http://www.w3.org/2000/svg">
<path d="M18.0156 3.98438C19.0938 3.98438 19.9844 4.92188 19.9844 6V11.0156C19.9844 11.7188 19.6094 12.375 19 12.7031V15.9844C19 17.1094 18.1094 18 16.9844 18H3.01562C1.89062 18 1 17.1094 1 15.9844V12.75C0.390625 12.375 0.015625 11.7656 0.015625 11.0156V6C0.015625 4.92188 0.90625 3.98438 1.98438 3.98438H6.01562V2.01562L7.98438 0H12.0156L13.9844 2.01562V3.98438H18.0156ZM7.98438 2.01562V3.98438H12.0156V2.01562H7.98438ZM1.98438 6V11.0156H7V8.01562H13V11.0156H18.0156V6H1.98438ZM10.9844 12V9.98438H9.01562V12H10.9844ZM16.9844 15.9844V12.9844H13V14.0156H7V12.9844H3.01562V15.9844H16.9844Z" fill="#5588D4"/>
</svg>
