<svg width="15" height="18" viewBox="0 0 15 18" fill="none" xmlns="http://www.w3.org/2000/svg">
<path d="M3.32031 8.4129H5V10.0535H3.32031V8.4129ZM15 4.23322V15.9129C15 16.8113 14.2578 17.5535 13.3203 17.5535H1.67969C0.742188 17.5535 0 16.8113 0 15.9129V4.23322C0 3.33478 0.742188 2.55353 1.67969 2.55353H2.5V0.912903H4.17969V2.55353H10.8203V0.912903H12.5V2.55353H13.3203C14.2578 2.55353 15 3.33478 15 4.23322ZM1.67969 5.9129H13.3203V4.23322H1.67969V5.9129ZM13.3203 15.9129V7.55353H1.67969V15.9129H13.3203ZM10 10.0535H11.6797V8.4129H10V10.0535ZM6.67969 10.0535H8.32031V8.4129H6.67969V10.0535Z" fill="#5588D4"/>
</svg>
