<svg width="18" height="17" viewBox="0 0 18 17" fill="none" xmlns="http://www.w3.org/2000/svg">
<path d="M8.83301 0.179688C13.4424 0.179688 17.1533 3.89062 17.1533 8.5C17.1533 13.1094 13.4424 16.8203 8.83301 16.8203C4.22363 16.8203 0.512695 13.1094 0.512695 8.5C0.512695 3.89062 4.22363 0.179688 8.83301 0.179688ZM8.83301 15.1797C12.5049 15.1797 15.5127 12.1719 15.5127 8.5C15.5127 4.82812 12.5049 1.82031 8.83301 1.82031C5.16113 1.82031 2.15332 4.82812 2.15332 8.5C2.15332 12.1719 5.16113 15.1797 8.83301 15.1797ZM9.10645 7.79688C10.5518 8.14844 12.1143 8.8125 12.1533 10.6484C12.1143 11.9766 11.1377 12.7188 9.84863 12.9531V14.3203H7.93457V12.9141C6.68457 12.6406 5.62988 11.8594 5.55176 10.4531H6.95801C7.03613 11.1953 7.58301 11.8203 8.91113 11.8203C10.3174 11.8203 10.6689 11.0781 10.6689 10.6484C10.6689 10.0625 10.3174 9.47656 8.71582 9.08594C6.87988 8.65625 5.66895 7.91406 5.66895 6.42969C5.66895 5.14062 6.64551 4.35938 7.93457 4.08594V2.67969H9.84863V4.08594C11.2158 4.4375 11.8799 5.45312 11.9189 6.58594H10.5127C10.4736 5.76562 10.0439 5.21875 8.87207 5.21875C7.81738 5.21875 7.15332 5.6875 7.15332 6.39062C7.15332 7.01562 7.62207 7.40625 9.10645 7.79688Z" fill="#5588D4"/>
</svg>
