<svg width="24" height="13" viewBox="0 0 24 13" fill="none" xmlns="http://www.w3.org/2000/svg">
<path d="M2.01562 11.0156V12.9844H21.9844V11.0156H2.01562ZM3.14062 6.9375L1.82812 6.1875L2.71875 4.73438H0.984375V3.23438H2.71875L1.82812 1.73438L3.14062 0.984375L3.98438 2.48438L4.82812 0.984375L6.14062 1.73438L5.29688 3.23438H6.98438V4.73438H5.29688L6.14062 6.1875L4.82812 6.9375L3.98438 5.48438L3.14062 6.9375ZM9.84375 6.1875L10.6875 4.73438H9V3.23438H10.6875L9.84375 1.73438L11.1562 0.984375L12 2.48438L12.8438 0.984375L14.1562 1.73438L13.3125 3.23438H15V4.73438H13.3125L14.1562 6.1875L12.8438 6.9375L12 5.48438L11.1562 6.9375L9.84375 6.1875ZM23.0156 3.23438V4.73438H21.2812L22.1719 6.1875L20.8594 6.9375L20.0156 5.48438L19.1719 6.9375L17.8594 6.1875L18.7031 4.73438H17.0156V3.23438H18.7031L17.8594 1.73438L19.1719 0.984375L20.0156 2.48438L20.8594 0.984375L22.1719 1.73438L21.2812 3.23438H23.0156Z" fill="#5588D4"/>
</svg>
