<svg width="18" height="18" viewBox="0 0 18 18" fill="none" xmlns="http://www.w3.org/2000/svg">
<path d="M9 3C7.92188 3 6.98438 3.89062 6.98438 5.01562C6.98438 6.09375 7.92188 6.98438 9 6.98438C10.0781 6.98438 11.0156 6.09375 11.0156 5.01562C11.0156 3.89062 10.0781 3 9 3ZM9 12.9844C6.32812 12.9844 3.23438 14.2969 3 15H15C14.8125 14.2969 11.7188 12.9844 9 12.9844ZM9 0.984375C11.2031 0.984375 12.9844 2.8125 12.9844 5.01562C12.9844 7.21875 11.2031 9 9 9C6.79688 9 5.01562 7.21875 5.01562 5.01562C5.01562 2.8125 6.79688 0.984375 9 0.984375ZM9 11.0156C11.6719 11.0156 17.0156 12.3281 17.0156 15V17.0156H0.984375V15C0.984375 12.3281 6.32812 11.0156 9 11.0156Z" fill="#5588D4"/>
</svg>
