<svg width="18" height="18" viewBox="0 0 18 18" fill="none" xmlns="http://www.w3.org/2000/svg">
<path d="M3.5625 2.01562H2.01562C2.10938 3.32812 2.39062 4.59375 2.8125 5.8125L3.98438 4.59375C3.75 3.75 3.60938 2.90625 3.5625 2.01562ZM13.4062 14.0156L12.1875 15.1875C13.4062 15.6094 14.6719 15.8906 15.9844 15.9375V14.4844C15.1406 14.3906 14.25 14.25 13.4062 14.0156ZM4.5 0C5.0625 0 5.48438 0.46875 5.48438 0.984375C5.48438 2.25 5.71875 3.46875 6.04688 4.54688C6.1875 4.92188 6.09375 5.29688 5.8125 5.57812L3.60938 7.78125C5.0625 10.6406 7.35938 12.9375 10.2188 14.3906L12.4219 12.1875C12.6094 12 12.8438 11.9062 13.125 11.9062C13.2188 11.9062 13.3125 11.9062 13.4531 11.9531C14.5312 12.3281 15.75 12.5156 17.0156 12.5156C17.5312 12.5156 18 12.9375 18 13.5V17.0156C18 17.5312 17.5312 18 17.0156 18C7.59375 18 0 10.4062 0 0.984375C0 0.46875 0.46875 0 0.984375 0H4.5Z" fill="#5588D4"/>
</svg>
