<svg width="10" height="13" viewBox="0 0 10 13" fill="none" xmlns="http://www.w3.org/2000/svg">
<path d="M5 6.5C4.37109 6.5 3.82422 5.98047 3.82422 5.32422C3.82422 4.69531 4.37109 4.17578 5 4.17578C5.62891 4.17578 6.17578 4.69531 6.17578 5.32422C6.17578 5.98047 5.62891 6.5 5 6.5ZM8.5 5.46094C8.5 3.32812 6.94141 1.82422 5 1.82422C3.05859 1.82422 1.5 3.32812 1.5 5.46094C1.5 6.82812 2.64844 8.63281 5 10.793C7.35156 8.63281 8.5 6.82812 8.5 5.46094ZM5 0.675781C7.46094 0.675781 9.67578 2.53516 9.67578 5.46094C9.67578 7.375 8.11719 9.67188 5 12.3242C1.88281 9.67188 0.324219 7.375 0.324219 5.46094C0.324219 2.53516 2.53906 0.675781 5 0.675781Z" fill="#5588D4"/>
</svg>
