<svg width="14" height="20" viewBox="0 0 14 20" fill="none" xmlns="http://www.w3.org/2000/svg">
<path d="M7 0.015625C10.8906 0.015625 13.9844 3.10938 13.9844 7C13.9844 12.25 7 19.9844 7 19.9844C7 19.9844 0.015625 12.25 0.015625 7C0.015625 3.10938 3.10938 0.015625 7 0.015625ZM1.98438 7C1.98438 9.85938 4.9375 14.2188 7 16.8906C9.10938 14.1719 12.0156 9.85938 12.0156 7C12.0156 4.23438 9.76562 1.98438 7 1.98438C4.23438 1.98438 1.98438 4.23438 1.98438 7ZM4.51562 7C4.51562 8.35938 5.64062 9.48438 7 9.48438C8.35938 9.48438 9.48438 8.35938 9.48438 7C9.48438 5.64062 8.35938 4.51562 7 4.51562C5.64062 4.51562 4.51562 5.64062 4.51562 7Z" fill="#5588D4"/>
</svg>
