<svg width="147" height="103" viewBox="0 0 147 103" fill="none" xmlns="http://www.w3.org/2000/svg">
<path opacity="0.63" d="M124.95 44.1429C129.823 44.1429 134.497 42.205 137.943 38.7557C141.389 35.3064 143.325 30.6281 143.325 25.75C143.325 20.8719 141.389 16.1936 137.943 12.7443C134.497 9.29496 129.823 7.35715 124.95 7.35715C120.077 7.35715 115.403 9.29496 111.957 12.7443C108.511 16.1936 106.575 20.8719 106.575 25.75C106.575 30.6281 108.511 35.3064 111.957 38.7557C115.403 42.205 120.077 44.1429 124.95 44.1429ZM124.95 14.7143C127.874 14.7143 130.678 15.877 132.746 17.9466C134.813 20.0162 135.975 22.8231 135.975 25.75C135.975 28.6769 134.813 31.4838 132.746 33.5534C130.678 35.623 127.874 36.7857 124.95 36.7857C122.026 36.7857 119.222 35.623 117.154 33.5534C115.087 31.4838 113.925 28.6769 113.925 25.75C113.925 22.8231 115.087 20.0162 117.154 17.9466C119.222 15.877 122.026 14.7143 124.95 14.7143ZM73.5 51.5C76.8787 51.5017 80.2247 50.8369 83.3466 49.5434C86.4685 48.25 89.3051 46.3533 91.6942 43.9619C94.0833 41.5704 95.9782 38.7311 97.2703 35.6062C98.5625 32.4812 99.2267 29.132 99.225 25.75C99.2267 22.368 98.5625 19.0188 97.2703 15.8938C95.9782 12.7689 94.0833 9.92958 91.6942 7.53812C89.3051 5.14667 86.4685 3.25 83.3466 1.95656C80.2247 0.663121 76.8787 -0.00173726 73.5 3.40911e-06C70.1213 -0.00173726 66.7753 0.663121 63.6534 1.95656C60.5315 3.25 57.6949 5.14667 55.3058 7.53812C52.9167 9.92958 51.0218 12.7689 49.7297 15.8938C48.4375 19.0188 47.7733 22.368 47.775 25.75C47.7733 29.132 48.4375 32.4812 49.7297 35.6062C51.0218 38.7311 52.9167 41.5704 55.3058 43.9619C57.6949 46.3533 60.5315 48.25 63.6534 49.5434C66.7753 50.8369 70.1213 51.5017 73.5 51.5ZM73.5 7.35715C78.3713 7.36376 83.0412 9.3037 86.4858 12.7516C89.9303 16.1995 91.8684 20.8739 91.875 25.75C91.8684 30.6261 89.9303 35.3005 86.4858 38.7484C83.0412 42.1963 78.3713 44.1362 73.5 44.1429C68.6287 44.1362 63.9588 42.1963 60.5142 38.7484C57.0697 35.3005 55.1316 30.6261 55.125 25.75C55.1316 20.8739 57.0697 16.1995 60.5142 12.7516C63.9588 9.3037 68.6287 7.36376 73.5 7.35715ZM129.544 51.5H120.356C116.981 51.5059 113.689 52.5407 110.916 54.4664C113.068 55.9321 115.028 57.6623 116.75 59.6164C117.888 59.1209 119.115 58.8626 120.356 58.8571H129.544C135.102 58.8571 139.65 63.7997 139.65 69.8929C139.653 70.8676 140.041 71.8017 140.729 72.491C141.418 73.1803 142.351 73.5687 143.325 73.5714C144.299 73.5687 145.232 73.1803 145.921 72.491C146.609 71.8017 146.997 70.8676 147 69.8929C147 59.7532 139.168 51.5 129.544 51.5ZM22.05 44.1429C24.463 44.1429 26.8525 43.6671 29.0818 42.7428C31.3112 41.8185 33.3368 40.4637 35.0431 38.7557C36.7494 37.0478 38.1029 35.0202 39.0263 32.7886C39.9497 30.5571 40.425 28.1654 40.425 25.75C40.425 20.8719 38.4891 16.1936 35.0431 12.7443C31.5971 9.29496 26.9234 7.35715 22.05 7.35715C17.1766 7.35715 12.5029 9.29496 9.05691 12.7443C5.61093 16.1936 3.675 20.8719 3.675 25.75C3.675 30.6281 5.61093 35.3064 9.05691 38.7557C12.5029 42.205 17.1766 44.1429 22.05 44.1429ZM22.05 14.7143C24.974 14.7143 27.7783 15.877 29.8459 17.9466C31.9134 20.0162 33.075 22.8231 33.075 25.75C33.075 28.6769 31.9134 31.4838 29.8459 33.5534C27.7783 35.623 24.974 36.7857 22.05 36.7857C19.126 36.7857 16.3217 35.623 14.2541 33.5534C12.1866 31.4838 11.025 28.6769 11.025 25.75C11.025 22.8231 12.1866 20.0162 14.2541 17.9466C16.3217 15.877 19.126 14.7143 22.05 14.7143ZM91.8985 56.0982C84.231 56.0982 82.32 58.8571 73.5 58.8571C64.68 58.8571 62.769 56.0982 55.1015 56.0982C50.9558 56.0201 46.8543 56.9625 43.1577 58.8427C39.4611 60.7228 36.2824 63.4831 33.9011 66.8808C30.9582 71.2475 29.3903 76.3969 29.4 81.6643V91.9643C29.4 94.8911 30.5616 97.6981 32.6291 99.7677C34.6967 101.837 37.501 103 40.425 103H106.575C109.499 103 112.303 101.837 114.371 99.7677C116.438 97.6981 117.6 94.8911 117.6 91.9643V81.6643C117.61 76.3969 116.042 71.2475 113.099 66.8808C110.718 63.4831 107.539 60.7228 103.842 58.8427C100.146 56.9625 96.0442 56.0201 91.8985 56.0982ZM110.25 91.9643C110.247 92.9391 109.859 93.8732 109.171 94.5624C108.482 95.2517 107.549 95.6401 106.575 95.6429H40.425C39.4512 95.6401 38.518 95.2517 37.8294 94.5624C37.1408 93.8732 36.7527 92.9391 36.75 91.9643V81.6643C36.7443 77.8656 37.8703 74.1514 39.984 70.9964C41.6914 68.5998 43.96 66.659 46.5911 65.3443C49.2221 64.0295 52.1353 63.3809 55.075 63.4554C61.3725 63.4554 63.6231 66.2143 73.5 66.2143C83.3769 66.2143 85.6275 63.4554 91.8985 63.4554C94.838 63.3812 97.7509 64.0299 100.382 65.3446C103.012 66.6594 105.281 68.6 106.988 70.9964C109.102 74.1514 110.228 77.8655 110.222 81.6643V91.9643H110.25ZM36.0841 54.4664C33.3082 52.5472 30.0174 51.5132 26.6438 51.5H17.4563C7.83216 51.5 0 59.7532 0 69.8929C0.00271535 70.8676 0.390774 71.8017 1.07938 72.491C1.76799 73.1803 2.70116 73.5687 3.675 73.5714C4.64884 73.5687 5.58201 73.1803 6.27062 72.491C6.95923 71.8017 7.34728 70.8676 7.35 69.8929C7.35 63.7997 11.8982 58.8571 17.4563 58.8571H26.6438C27.8848 58.8626 29.1116 59.1209 30.2497 59.6164C31.9771 57.6677 33.9365 55.9381 36.0841 54.4664Z" fill="white"/>
</svg>
