<svg width="20" height="13" viewBox="0 0 20 13" fill="none" xmlns="http://www.w3.org/2000/svg">
<path d="M10 2C6.83594 2 4.02344 3.75781 2.65625 6.57031C4.02344 9.38281 6.83594 11.1797 10 11.1797C13.1641 11.1797 15.9766 9.38281 17.3438 6.57031C15.9766 3.75781 13.1641 2 10 2ZM10 0.320312C14.1797 0.320312 17.7344 2.9375 19.1797 6.57031C17.7344 10.2422 14.1797 12.8203 10 12.8203C5.82031 12.8203 2.26562 10.2422 0.820312 6.57031C2.26562 2.9375 5.82031 0.320312 10 0.320312ZM10 4.5C8.86719 4.5 7.92969 5.4375 7.92969 6.57031C7.92969 7.74219 8.86719 8.67969 10 8.67969C11.1328 8.67969 12.0703 7.74219 12.0703 6.57031C12.0703 5.4375 11.1328 4.5 10 4.5ZM10 2.82031C12.0703 2.82031 13.75 4.5 13.75 6.57031C13.75 8.64062 12.0703 10.3203 10 10.3203C7.92969 10.3203 6.25 8.64062 6.25 6.57031C6.25 4.5 7.92969 2.82031 10 2.82031Z" fill="#5588D4"/>
</svg>
