<svg width="18" height="22" viewBox="0 0 18 22" fill="none" xmlns="http://www.w3.org/2000/svg">
<path d="M6.70312 11.6875L7.54688 8.82812L5.25 7H8.10938L9 4.1875L9.89062 7H12.75L10.4531 8.82812L11.2969 11.6875L9 9.95312L6.70312 11.6875ZM17.0156 7.98438C17.0156 10.0469 16.2188 11.875 15 13.2812V21.0156L9 19L3 21.0156V13.2812C1.78125 11.875 0.984375 10.0469 0.984375 7.98438C0.984375 3.57812 4.59375 0.015625 9 0.015625C13.4062 0.015625 17.0156 3.57812 17.0156 7.98438ZM9 1.98438C5.67188 1.98438 3 4.70312 3 7.98438C3 11.3125 5.67188 13.9844 9 13.9844C12.3281 13.9844 15 11.3125 15 7.98438C15 4.70312 12.3281 1.98438 9 1.98438ZM9 16.9844L12.9844 18.0156V14.9219C11.8125 15.5781 10.4531 16 9 16C7.54688 16 6.1875 15.5781 5.01562 14.9219V18.0156L9 16.9844Z" fill="#50F4FF"/>
</svg>
