<svg width="122" height="124" viewBox="0 0 122 124" fill="none" xmlns="http://www.w3.org/2000/svg">
<path d="M118.255 3.4567C124.325 9.29334 112.031 32.2701 105.944 38.0909C81.6375 59.9958 18.9514 115.079 14.6223 110.586C9.90233 106.365 62.858 41.941 84.0299 17.0214C89.6886 10.7867 112.183 -2.3791 118.253 3.45728L118.255 3.4567Z" stroke="white" stroke-width="3" stroke-linecap="round" stroke-linejoin="round"/>
<path d="M97.1464 46.4065L104.333 104.059L95.1968 113.484L78.6992 63.1466" stroke="white" stroke-width="3" stroke-linecap="round" stroke-linejoin="round"/>
<path d="M75.7773 26.1394L17.7779 21.1176L8.67969 30.5786L59.7009 45.1587" stroke="white" stroke-width="3" stroke-linecap="round" stroke-linejoin="round"/>
<path d="M45.7722 89.9296L49.2108 117.516L44.8412 122.028L31.416 101.598" stroke="white" stroke-width="3" stroke-linecap="round" stroke-linejoin="round"/>
<path d="M34.1098 78.7383L6.35545 76.3355L2 80.8613L22.9577 93.4886" stroke="white" stroke-width="3" stroke-linecap="round" stroke-linejoin="round"/>
<path d="M101.527 79.0114L107.781 72.533C109.066 71.2021 111.175 71.163 112.51 72.4454C113.843 73.7278 113.883 75.8327 112.597 77.1635L103.014 87.0891" stroke="white" stroke-width="3" stroke-linecap="round" stroke-linejoin="round"/>
<path d="M43.0213 22.9049L49.276 16.4275C50.5612 15.0966 50.5221 12.9918 49.1884 11.7094C47.8546 10.4271 45.746 10.4662 44.4598 11.7971L34.877 21.7226" stroke="white" stroke-width="3" stroke-linecap="round" stroke-linejoin="round"/>
<path d="M106.233 23.7784L98.2891 16.2499" stroke="white" stroke-width="3" stroke-linecap="round" stroke-linejoin="round"/>
<path d="M28.7031 95.9347L36.2477 88.0073" stroke="white" stroke-width="3" stroke-linecap="round" stroke-linejoin="round"/>
<path d="M74.6465 108.081L82.191 100.154" stroke="white" stroke-width="3" stroke-linecap="round" stroke-linejoin="round"/>
<path d="M63.8887 110.128L79.2835 94.0758" stroke="white" stroke-width="3" stroke-linecap="round" stroke-linejoin="round"/>
<path d="M17.6523 55.6053L25.1959 47.6779" stroke="white" stroke-width="3" stroke-linecap="round" stroke-linejoin="round"/>
<path d="M6.89453 57.6387L22.2907 41.5861" stroke="white" stroke-width="3" stroke-linecap="round" stroke-linejoin="round"/>
</svg>
