<svg width="7" height="12" viewBox="0 0 7 12" fill="none" xmlns="http://www.w3.org/2000/svg">
<path d="M3.875 5.28125C5.375 5.65625 7 6.3125 7 8.1875C7 9.5625 5.96875 10.3125 4.65625 10.5625V12H2.65625V10.5625C1.375 10.2812 0.28125 9.46875 0.21875 8H1.6875C1.75 8.78125 2.28125 9.40625 3.65625 9.40625C5.125 9.40625 5.46875 8.65625 5.46875 8.21875C5.46875 7.59375 5.125 7 3.46875 6.59375C1.59375 6.15625 0.34375 5.375 0.34375 3.84375C0.34375 2.5625 1.375 1.71875 2.65625 1.4375V0H4.65625V1.46875C6.0625 1.8125 6.75 2.84375 6.8125 4H5.34375C5.28125 3.15625 4.84375 2.59375 3.65625 2.59375C2.53125 2.59375 1.875 3.09375 1.875 3.84375C1.875 4.46875 2.34375 4.875 3.875 5.28125Z" fill="white"/>
</svg>
