<svg width="14" height="14" viewBox="0 0 14 14" fill="none" xmlns="http://www.w3.org/2000/svg">
<path d="M10 5.9375C10.25 5.6875 10.25 5.25 10 5L6.5625 1.59375C5.78125 0.8125 4.53125 0.8125 3.75 1.59375L0.90625 4.40625C0.125 5.1875 0.125 6.46875 0.90625 7.25L1.34375 7.65625L6.0625 2.96875L9.03125 5.9375C9.28125 6.1875 9.71875 6.1875 10 5.9375ZM10.4688 4.53125L7.46875 1.53125C8.25 0.8125 9.5 0.8125 10.25 1.59375L13.0938 4.40625C13.875 5.1875 13.875 6.46875 13.0938 7.25L7.53125 12.8125C7.28125 13.0625 6.875 13.0625 6.59375 12.8125C6.34375 12.5312 6.34375 12.125 6.59375 11.875L9.6875 8.78125L9.21875 8.3125L6.125 11.375C5.875 11.6562 5.4375 11.6562 5.1875 11.375C4.9375 11.125 4.9375 10.7188 5.1875 10.4375L8.28125 7.375L7.78125 6.90625L4.71875 9.96875C4.4375 10.2188 4.03125 10.2188 3.78125 9.96875C3.5 9.71875 3.5 9.28125 3.78125 9.03125L6.84375 5.96875L6.375 5.46875L3.28125 8.5625C3.03125 8.8125 2.59375 8.8125 2.34375 8.5625C2.09375 8.3125 2.09375 7.875 2.34375 7.625L6.0625 3.90625L8.5625 6.40625C8.71875 6.5625 9.59375 7.25 10.4688 6.40625C10.9688 5.90625 10.9688 5.03125 10.4688 4.53125Z" fill="white"/>
</svg>
