<svg width="14" height="15" viewBox="0 0 14 15" fill="none" xmlns="http://www.w3.org/2000/svg">
<path d="M10.8125 7.5L13.4688 10.1562C13.75 10.4375 13.75 10.8438 13.4688 11.0938L10.5938 14C10.4688 14.125 10.2812 14.1875 10.125 14.1875C9.9375 14.1875 9.78125 14.125 9.625 14L7 11.3438L4.34375 14C4.0625 14.25 3.65625 14.25 3.40625 14L0.5 11.0938C0.25 10.8438 0.25 10.4375 0.5 10.1562L3.15625 7.5L0.5 4.875C0.25 4.59375 0.25 4.1875 0.5 3.90625L3.40625 1.03125C3.53125 0.90625 3.6875 0.84375 3.875 0.84375C4.03125 0.84375 4.1875 0.90625 4.34375 1.03125L7 3.6875L9.625 1.03125C9.90625 0.78125 10.3125 0.78125 10.5938 1.03125L13.4688 3.90625C13.7188 4.1875 13.7188 4.59375 13.4688 4.875L10.8125 7.5ZM7 5.5C6.625 5.5 6.34375 5.8125 6.34375 6.15625C6.34375 6.53125 6.625 6.84375 7 6.84375C7.375 6.84375 7.65625 6.53125 7.65625 6.15625C7.65625 5.8125 7.375 5.5 7 5.5ZM3.875 6.8125L6.28125 4.375L3.875 1.96875L1.4375 4.40625L3.875 6.8125ZM5.65625 8.15625C6.03125 8.15625 6.34375 7.875 6.34375 7.5C6.34375 7.125 6.03125 6.84375 5.65625 6.84375C5.3125 6.84375 5 7.125 5 7.5C5 7.875 5.3125 8.15625 5.65625 8.15625ZM7 9.5C7.375 9.5 7.65625 9.1875 7.65625 8.84375C7.65625 8.46875 7.375 8.15625 7 8.15625C6.625 8.15625 6.34375 8.46875 6.34375 8.84375C6.34375 9.1875 6.625 9.5 7 9.5ZM8.34375 6.84375C7.96875 6.84375 7.65625 7.125 7.65625 7.5C7.65625 7.875 7.96875 8.15625 8.34375 8.15625C8.6875 8.15625 9 7.875 9 7.5C9 7.125 8.6875 6.84375 8.34375 6.84375ZM10.0938 13.0625L12.5312 10.625L10.0938 8.21875L7.6875 10.6562L10.0938 13.0625Z" fill="white"/>
</svg>
