<svg width="14" height="12" viewBox="0 0 14 12" fill="none" xmlns="http://www.w3.org/2000/svg">
<path d="M13.6562 4.65625C12.9375 4.65625 12.3438 5.28125 12.3438 6C12.3438 6.71875 12.9375 7.34375 13.6562 7.34375V10C13.6562 10.7188 13.0625 11.3438 12.3438 11.3438H1.65625C0.9375 11.3438 0.34375 10.7188 0.34375 10V7.34375C1.0625 7.34375 1.65625 6.71875 1.65625 6C1.65625 5.28125 1.0625 4.65625 0.34375 4.65625V2C0.34375 1.28125 0.9375 0.65625 1.65625 0.65625H12.3438C13.0625 0.65625 13.6562 1.28125 13.6562 2V4.65625ZM12.3438 3.6875V2H1.65625L1.6875 3.6875C2.46875 4.15625 3 5 3 6C3 6.96875 2.46875 7.84375 1.65625 8.3125V10H12.3438V8.3125C11.5312 7.84375 11 6.96875 11 6C11 5.03125 11.5312 4.15625 12.3438 3.6875ZM5.03125 8.65625L5.625 6.40625L3.84375 4.96875L6.15625 4.8125L7 2.65625L7.84375 4.8125L10.1562 4.96875L8.375 6.4375L8.96875 8.65625L7 7.40625L5.03125 8.65625Z" fill="white"/>
</svg>
