<svg width="14" height="13" viewBox="0 0 14 13" fill="none" xmlns="http://www.w3.org/2000/svg">
<path d="M0.34375 11.1562V9.15625H13.6562V11.1562C13.6562 11.9062 13.0625 12.5 12.3438 12.5H1.65625C0.9375 12.5 0.34375 11.9062 0.34375 11.1562ZM1.65625 10.5V11.1562H12.3438V10.5H1.65625ZM11.4375 6.15625C12.5938 6.15625 12.5938 6.625 13.6562 6.84375V8.15625C12.375 8.15625 12.25 7.5 11.4688 7.5C10.625 7.5 10.5312 8.15625 9.21875 8.15625C7.96875 8.15625 7.8125 7.5 7 7.5C6.1875 7.5 6.09375 8.15625 4.78125 8.15625C3.53125 8.15625 3.375 7.5 2.5625 7.5C1.78125 7.5 1.59375 8.15625 0.34375 8.15625V6.84375C1.15625 6.84375 1.25 6.15625 2.5625 6.15625C3.84375 6.15625 4 6.84375 4.78125 6.84375C5.59375 6.84375 5.6875 6.15625 7 6.15625C8.28125 6.15625 8.4375 6.84375 9.21875 6.84375C10.0312 6.84375 10.125 6.15625 11.4375 6.15625ZM13.6562 4.5V5.15625H0.34375V4.5C0.34375 1.84375 3.1875 0.5 7 0.5C10.8125 0.5 13.6875 1.84375 13.6562 4.5ZM1.78125 3.84375H12.2188C12.125 3.59375 12 3.375 11.7812 3.15625C10.9688 2.3125 9.21875 1.84375 7 1.84375C4.75 1.84375 2.34375 2.375 1.78125 3.84375Z" fill="white"/>
</svg>
