<svg width="4" height="14" viewBox="0 0 4 14" fill="none" xmlns="http://www.w3.org/2000/svg">
<path d="M2 3.67969C1.10156 3.67969 0.320312 2.89844 0.320312 2C0.320312 1.10156 1.10156 0.320312 2 0.320312C2.89844 0.320312 3.67969 1.10156 3.67969 2C3.67969 2.89844 2.89844 3.67969 2 3.67969ZM2 5.32031C2.89844 5.32031 3.67969 6.10156 3.67969 7C3.67969 7.89844 2.89844 8.67969 2 8.67969C1.10156 8.67969 0.320312 7.89844 0.320312 7C0.320312 6.10156 1.10156 5.32031 2 5.32031ZM2 10.3203C2.89844 10.3203 3.67969 11.1016 3.67969 12C3.67969 12.8984 2.89844 13.6797 2 13.6797C1.10156 13.6797 0.320312 12.8984 0.320312 12C0.320312 11.1016 1.10156 10.3203 2 10.3203Z" fill="#5588D4"/>
</svg>
