<svg width="12" height="14" viewBox="0 0 12 14" fill="none" xmlns="http://www.w3.org/2000/svg">
<path d="M6 13.6562C5.28125 13.6562 4.65625 13.0625 4.65625 12.3438H7.34375C7.34375 13.0625 6.71875 13.6562 6 13.6562ZM10 9.65625L11.3438 11V11.6562H0.65625V11L2 9.65625V6.34375C2 4.28125 3.09375 2.5625 5 2.125V1.65625C5 1.125 5.4375 0.65625 6 0.65625C6.5625 0.65625 7 1.125 7 1.65625V2.125C8.90625 2.5625 10 4.28125 10 6.34375V9.65625ZM8.65625 10.3438V6.34375C8.65625 4.6875 7.65625 3.34375 6 3.34375C4.34375 3.34375 3.34375 4.6875 3.34375 6.34375V10.3438H8.65625Z" fill="white"/>
</svg>
