<svg width="14" height="10" viewBox="0 0 14 10" fill="none" xmlns="http://www.w3.org/2000/svg">
<path d="M5 6.15625C6.5625 6.15625 9.65625 6.9375 9.65625 8.5V9.65625H0.34375V8.5C0.34375 6.9375 3.4375 6.15625 5 6.15625ZM1.90625 8.34375H8.09375C7.53125 7.9375 6.1875 7.5 5 7.5C3.8125 7.5 2.46875 7.9375 1.90625 8.34375ZM5 5C3.71875 5 2.65625 3.96875 2.65625 2.65625C2.65625 1.375 3.71875 0.34375 5 0.34375C6.28125 0.34375 7.34375 1.375 7.34375 2.65625C7.34375 3.96875 6.28125 5 5 5ZM5 1.65625C4.4375 1.65625 4 2.125 4 2.65625C4 3.21875 4.4375 3.65625 5 3.65625C5.5625 3.65625 6 3.21875 6 2.65625C6 2.125 5.5625 1.65625 5 1.65625ZM9.6875 6.21875C11.3438 6.375 13.6562 7.15625 13.6562 8.5V9.65625H11V8.5C11 7.5 10.4688 6.78125 9.6875 6.21875ZM9 5C8.625 5 8.3125 4.90625 8 4.78125C8.40625 4.1875 8.65625 3.4375 8.65625 2.65625C8.65625 1.875 8.40625 1.15625 8 0.5625C8.3125 0.40625 8.625 0.34375 9 0.34375C10.2812 0.34375 11.3438 1.375 11.3438 2.65625C11.3438 3.96875 10.2812 5 9 5Z" fill="white"/>
</svg>
