<svg width="12" height="12" viewBox="0 0 12 12" fill="none" xmlns="http://www.w3.org/2000/svg">
<path d="M6 2C5.28125 2 4.65625 2.59375 4.65625 3.34375C4.65625 4.0625 5.28125 4.65625 6 4.65625C6.71875 4.65625 7.34375 4.0625 7.34375 3.34375C7.34375 2.59375 6.71875 2 6 2ZM6 8.65625C4.21875 8.65625 2.15625 9.53125 2 10H10C9.875 9.53125 7.8125 8.65625 6 8.65625ZM6 0.65625C7.46875 0.65625 8.65625 1.875 8.65625 3.34375C8.65625 4.8125 7.46875 6 6 6C4.53125 6 3.34375 4.8125 3.34375 3.34375C3.34375 1.875 4.53125 0.65625 6 0.65625ZM6 7.34375C7.78125 7.34375 11.3438 8.21875 11.3438 10V11.3438H0.65625V10C0.65625 8.21875 4.21875 7.34375 6 7.34375Z" fill="white"/>
</svg>
