<svg width="14" height="14" viewBox="0 0 14 14" fill="none" xmlns="http://www.w3.org/2000/svg">
<path d="M0.34375 4.84375C0.34375 5.75 1.09375 6.5 2 6.5C2.90625 6.5 3.65625 5.75 3.65625 4.84375C3.65625 3.90625 2.90625 3.15625 2 3.15625C1.09375 3.15625 0.34375 3.90625 0.34375 4.84375ZM3.34375 2.15625C3.34375 3.09375 4.09375 3.84375 5 3.84375C5.90625 3.84375 6.65625 3.09375 6.65625 2.15625C6.65625 1.25 5.90625 0.5 5 0.5C4.09375 0.5 3.34375 1.25 3.34375 2.15625ZM7.34375 2.15625C7.34375 3.09375 8.09375 3.84375 9 3.84375C9.90625 3.84375 10.6562 3.09375 10.6562 2.15625C10.6562 1.25 9.90625 0.5 9 0.5C8.09375 0.5 7.34375 1.25 7.34375 2.15625ZM10.3438 4.84375C10.3438 5.75 11.0938 6.5 12 6.5C12.9062 6.5 13.6562 5.75 13.6562 4.84375C13.6562 3.90625 12.9062 3.15625 12 3.15625C11.0938 3.15625 10.3438 3.90625 10.3438 4.84375ZM10.5625 8.40625C11.4375 9.28125 12.5 10.25 12.3125 11.5938C12.0938 12.2812 11.625 12.9688 10.75 13.1562C10.25 13.25 8.71875 12.875 7.0625 12.875H6.9375C5.28125 12.875 3.71875 13.25 3.25 13.1562C2.375 12.9688 1.875 12.2812 1.6875 11.5938C1.5 10.25 2.5625 9.28125 3.4375 8.40625C4.03125 7.71875 4.5 7.15625 5.09375 6.46875C5.40625 6.125 5.78125 5.75 6.25 5.59375C6.3125 5.5625 6.40625 5.53125 6.46875 5.53125C6.65625 5.5 6.8125 5.5 7 5.5C7.1875 5.5 7.34375 5.5 7.53125 5.53125C7.59375 5.53125 7.65625 5.5625 7.75 5.59375C8.21875 5.75 8.59375 6.09375 8.90625 6.46875C9.5 7.15625 9.96875 7.71875 10.5625 8.40625Z" fill="white"/>
</svg>
