<svg width="12" height="13" viewBox="0 0 12 13" fill="none" xmlns="http://www.w3.org/2000/svg">
<path d="M10.375 1.55078L11.25 0.675781V12.3242L10.375 11.4492L9.5 12.3242L8.625 11.4492L7.75 12.3242L6.875 11.4492L6 12.3242L5.125 11.4492L4.25 12.3242L3.375 11.4492L2.5 12.3242L1.625 11.4492L0.75 12.3242V0.675781L1.625 1.55078L2.5 0.675781L3.375 1.55078L4.25 0.675781L5.125 1.55078L6 0.675781L6.875 1.55078L7.75 0.675781L8.625 1.55078L9.5 0.675781L10.375 1.55078ZM10.0742 10.6289V2.37109H1.92578V10.6289H10.0742ZM2.5 8.25V9.42578H9.5V8.25H2.5ZM2.5 5.92578V7.07422H9.5V5.92578H2.5ZM2.5 3.57422V4.75H9.5V3.57422H2.5Z" fill="#FF4444"/>
</svg>
