<svg width="12" height="12" viewBox="0 0 12 12" fill="none" xmlns="http://www.w3.org/2000/svg">
<path d="M8.34375 7.34375L11.6562 10.6562L10.6562 11.6562L7.34375 8.34375V7.8125L7.15625 7.625C6.40625 8.28125 5.40625 8.65625 4.34375 8.65625C1.9375 8.65625 0 6.71875 0 4.34375C0 1.9375 1.9375 0 4.34375 0C6.71875 0 8.65625 1.9375 8.65625 4.34375C8.65625 5.40625 8.28125 6.40625 7.625 7.15625L7.8125 7.34375H8.34375ZM4.34375 7.34375C6 7.34375 7.34375 6 7.34375 4.34375C7.34375 2.6875 6 1.34375 4.34375 1.34375C2.6875 1.34375 1.34375 2.6875 1.34375 4.34375C1.34375 6 2.6875 7.34375 4.34375 7.34375Z" fill="white"/>
</svg>
