<svg width="14" height="14" viewBox="0 0 14 14" fill="none" xmlns="http://www.w3.org/2000/svg">
<path d="M11.9688 7.65625L13.375 8.75C13.5 8.84375 13.5312 9.03125 13.4375 9.1875L12.0938 11.5C12.0312 11.5938 11.9375 11.6562 11.8125 11.6562C11.7812 11.6562 11.75 11.6562 11.6875 11.625L10.0312 10.9688C9.6875 11.2188 9.3125 11.4688 8.90625 11.625L8.65625 13.375C8.625 13.5312 8.5 13.6562 8.34375 13.6562H5.65625C5.5 13.6562 5.375 13.5312 5.34375 13.375L5.09375 11.625C4.6875 11.4688 4.3125 11.2188 3.96875 10.9688L2.3125 11.625C2.28125 11.6562 2.21875 11.6562 2.1875 11.6562C2.0625 11.6562 1.96875 11.5938 1.90625 11.5L0.5625 9.1875C0.46875 9.03125 0.5 8.84375 0.625 8.75L2.03125 7.65625C2.03125 7.4375 2 7.21875 2 7C2 6.78125 2.03125 6.5625 2.03125 6.34375L0.625 5.25C0.5 5.15625 0.46875 4.96875 0.5625 4.8125L1.90625 2.5C1.96875 2.40625 2.0625 2.34375 2.1875 2.34375C2.21875 2.34375 2.25 2.34375 2.3125 2.375L3.96875 3.03125C4.3125 2.78125 4.6875 2.53125 5.09375 2.375L5.34375 0.625C5.375 0.46875 5.5 0.34375 5.65625 0.34375H8.34375C8.5 0.34375 8.625 0.46875 8.65625 0.625L8.90625 2.375C9.3125 2.53125 9.6875 2.78125 10.0312 3.03125L11.6875 2.375C11.7188 2.34375 11.7812 2.34375 11.8125 2.34375C11.9375 2.34375 12.0312 2.40625 12.0938 2.5L13.4375 4.8125C13.5312 4.96875 13.5 5.15625 13.375 5.25L11.9688 6.34375C11.9688 6.5625 12 6.78125 12 7C12 7.21875 11.9688 7.4375 11.9688 7.65625ZM10.625 6.5L10.5312 5.75L11.125 5.28125L11.8438 4.71875L11.375 3.90625L10.5312 4.25L9.8125 4.53125L9.21875 4.09375C8.96875 3.875 8.6875 3.71875 8.40625 3.59375L7.6875 3.3125L7.59375 2.5625L7.46875 1.65625H6.53125L6.40625 2.5625L6.28125 3.3125L5.59375 3.59375C5.3125 3.71875 5.03125 3.875 4.75 4.09375L4.15625 4.53125L3.46875 4.28125L2.625 3.9375L2.15625 4.71875L2.875 5.28125L3.46875 5.75L3.375 6.5C3.34375 6.71875 3.34375 6.875 3.34375 7C3.34375 7.125 3.34375 7.28125 3.375 7.5L3.46875 8.25L2.875 8.71875L2.15625 9.28125L2.625 10.0938L3.46875 9.75L4.15625 9.46875L4.78125 9.90625C5.03125 10.125 5.3125 10.2812 5.59375 10.4062L6.3125 10.6875L6.40625 11.4375L6.53125 12.3438H7.46875L7.59375 11.4375L7.71875 10.6875L8.40625 10.4062C8.6875 10.2812 8.96875 10.125 9.25 9.90625L9.84375 9.46875L10.5312 9.71875L11.375 10.0625L11.8438 9.28125L11.125 8.71875L10.5312 8.25L10.625 7.5C10.6562 7.28125 10.6562 7.125 10.6562 7C10.6562 6.875 10.6562 6.71875 10.625 6.5ZM7 4.34375C8.46875 4.34375 9.65625 5.53125 9.65625 7C9.65625 8.46875 8.46875 9.65625 7 9.65625C5.53125 9.65625 4.34375 8.46875 4.34375 7C4.34375 5.53125 5.53125 4.34375 7 4.34375ZM7 8.34375C7.71875 8.34375 8.34375 7.71875 8.34375 7C8.34375 6.28125 7.71875 5.65625 7 5.65625C6.28125 5.65625 5.65625 6.28125 5.65625 7C5.65625 7.71875 6.28125 8.34375 7 8.34375Z" fill="white"/>
</svg>
