<svg width="198" height="169" viewBox="0 0 198 169" fill="none" xmlns="http://www.w3.org/2000/svg">
<mask id="mask0_120_6263" style="mask-type:alpha" maskUnits="userSpaceOnUse" x="98" y="0" width="100" height="156">
<path d="M132 0H198V156H98L132 0Z" fill="#C4C4C4"/>
</mask>
<g mask="url(#mask0_120_6263)">
<path d="M188.255 19.4567C194.325 25.2933 182.031 48.2701 175.944 54.0909C151.637 75.9958 88.9514 131.079 84.6223 126.586C79.9023 122.365 132.858 57.941 154.03 33.0214C159.689 26.7867 182.183 13.6209 188.253 19.4573L188.255 19.4567Z" stroke="white" stroke-width="3" stroke-linecap="round" stroke-linejoin="round"/>
<path d="M167.146 62.4065L174.333 120.059L165.197 129.484L148.699 79.1466" stroke="white" stroke-width="3" stroke-linecap="round" stroke-linejoin="round"/>
<path d="M145.777 42.1394L87.7779 37.1177L78.6797 46.5786L129.701 61.1587" stroke="white" stroke-width="3" stroke-linecap="round" stroke-linejoin="round"/>
<path d="M115.772 105.93L119.211 133.516L114.841 138.028L101.416 117.598" stroke="white" stroke-width="3" stroke-linecap="round" stroke-linejoin="round"/>
<path d="M104.11 94.7383L76.3554 92.3355L72 96.8613L92.9577 109.489" stroke="white" stroke-width="3" stroke-linecap="round" stroke-linejoin="round"/>
<path d="M171.527 95.0114L177.781 88.533C179.066 87.2021 181.175 87.163 182.51 88.4454C183.843 89.7278 183.883 91.8327 182.597 93.1635L173.014 103.089" stroke="white" stroke-width="3" stroke-linecap="round" stroke-linejoin="round"/>
<path d="M113.021 38.9049L119.276 32.4275C120.561 31.0966 120.522 28.9918 119.188 27.7094C117.855 26.4271 115.746 26.4662 114.46 27.7971L104.877 37.7226" stroke="white" stroke-width="3" stroke-linecap="round" stroke-linejoin="round"/>
<path d="M176.233 39.7784L168.289 32.2499" stroke="white" stroke-width="3" stroke-linecap="round" stroke-linejoin="round"/>
<path d="M98.7031 111.935L106.248 104.007" stroke="white" stroke-width="3" stroke-linecap="round" stroke-linejoin="round"/>
<path d="M144.646 124.081L152.191 116.154" stroke="white" stroke-width="3" stroke-linecap="round" stroke-linejoin="round"/>
<path d="M133.889 126.128L149.283 110.076" stroke="white" stroke-width="3" stroke-linecap="round" stroke-linejoin="round"/>
</g>
<mask id="mask1_120_6263" style="mask-type:alpha" maskUnits="userSpaceOnUse" x="0" y="0" width="127" height="156">
<path d="M0 0H127L93 155L0 156V0Z" fill="#C4C4C4"/>
</mask>
<g mask="url(#mask1_120_6263)">
<path d="M168.554 110.458C167.165 110.44 165.777 110.424 164.39 110.41C161.857 110.384 159.322 110.35 156.788 110.309C157.912 106.224 158.929 102.118 160.206 98.0613C161.046 95.3919 161.421 92.6246 161.942 89.8995L162.226 88.5009L161.565 88.4267C158.215 88.0465 154.863 87.6728 151.514 87.2912C147.304 86.8134 143.05 86.4657 138.877 85.7339C139.222 83.3717 139.586 81.0226 139.885 78.6994C140.292 75.5352 140.615 72.3631 140.859 69.1832C140.967 67.7717 141.09 66.3627 141.23 64.9526C141.234 64.9227 141.238 64.8875 141.241 64.855C141.916 64.8133 142.591 64.7781 143.265 64.7339C148.207 64.4148 153.147 64.1127 158.092 63.8549C160.232 63.7429 162.374 63.6492 164.514 63.5632L165.995 63.502L165.836 62.2194C165.621 60.6399 165.349 59.0734 165.109 57.5614C164.907 56.2814 164.532 55.0287 164.129 53.7826L163.703 52.4752L162.748 52.2994C157.195 51.2837 151.627 50.3448 146.049 49.475C148.14 47.4267 150.251 45.3981 152.37 43.3756C155.203 40.6684 158.385 38.154 161.1 35.2631L162.054 34.2006L160.648 34.0547C159.868 33.974 159.088 33.8959 158.309 33.8151C155.665 33.5469 152.998 33.2982 150.327 33.1406L147.094 33L145.634 33.9219C142.794 35.7397 139.968 37.5848 137.149 39.3896C133.494 41.7322 129.736 44.0825 126.166 46.6517C124.87 46.4876 123.577 46.3209 122.281 46.1647C112.174 44.9289 102.043 43.8859 91.898 43.0473C86.628 42.6124 81.353 42.2412 76.0753 41.9118C72.6988 41.7009 69.1686 41.279 65.7217 41.361C65.7295 41.3467 65.7361 41.3324 65.7439 41.3181C65.8559 41.1019 65.5616 40.9378 65.4222 41.1292C65.3623 41.2113 65.3089 41.2985 65.2504 41.3832L64.3297 42.7348C62.2853 45.8392 60.5625 49.1375 58.7514 52.3904L58.1745 53.4139C57.3568 54.8554 56.5169 56.2812 55.6093 57.6681C49.2066 56.4532 42.7492 55.5144 36.2905 54.7227C30.8408 54.0546 25.3432 53.3241 19.8558 53.1249C16.9703 53.0207 14.0405 53.2095 11.156 53.315C10.3499 53.345 9.56215 53.3332 8.78864 53.3749C6.90833 53.039 5.07875 53.4739 3.576 54.724C1.2907 56.6264 2.03424 60.6956 2.4835 63.1751C3.22445 67.26 4.83391 71.2903 5.9367 75.2942C7.19458 79.8581 8.6374 84.3664 10.204 88.834C11.0556 91.2612 11.9658 93.6636 12.9177 96.0494L13.7003 98.0677C13.712 98.073 13.725 98.0769 13.7354 98.0821C15.8619 103.258 18.1837 108.353 20.5848 113.409C20.8505 113.967 21.1148 114.523 21.3804 115.082L21.8232 116.013L23.7907 116.921C25.3585 117.635 26.9472 118.306 28.7063 118.771C31.7404 119.573 34.9867 119.728 38.1002 119.934C45.5837 120.426 53.0608 120.992 60.5532 121.341C76.1908 122.068 91.8558 122.37 107.503 122.702C126.79 123.111 146.035 122.167 165.253 120.796L166.952 120.672L167.399 118.942C167.604 118.211 167.838 117.466 168.078 116.716L168.496 115.424C168.832 114.398 169.174 113.359 169.49 112.316L170.011 110.478L168.554 110.458ZM138.851 40.1369C141.941 38.2163 145.635 36.3647 148.916 34.1406C151.683 34.3346 154.444 34.5768 157.204 34.8477C157.97 34.9219 158.736 35.0039 159.503 35.0873C156.796 37.5197 154.074 39.9352 151.406 42.4144C149.069 44.5877 146.497 46.8013 144.134 49.1854C138.908 48.3846 133.676 47.6359 128.437 46.9509C131.91 44.6709 135.341 42.319 138.851 40.1369L138.851 40.1369ZM64.9897 42.7947C83.7251 44.4315 102.465 45.5357 121.156 47.7753C122.151 47.8951 123.146 48.0279 124.141 48.1503L126.183 48.4081C131.714 49.1022 137.238 49.847 142.757 50.6244L144.625 50.8822C150.803 51.7599 156.976 52.6805 163.142 53.6298C163.296 54.1507 163.44 54.6624 163.551 55.1546C164.07 57.4738 164.236 59.8722 164.413 62.2657C162.303 62.3386 160.194 62.4285 158.09 62.534C152.6 62.81 147.034 63.0301 141.494 63.4285L140.366 63.5106L140.095 64.926C139.294 69.4173 139.023 74.0736 138.422 78.5035C138.107 80.8252 137.811 83.1485 137.544 85.4739L137.39 86.7917C137.364 87.0339 137.333 87.2774 137.306 87.5222L138.682 87.0704C138.871 87.1094 139.06 87.1511 139.25 87.1875C142.91 87.9142 146.676 88.1954 150.378 88.6356C153.992 89.0666 157.625 89.4872 161.266 89.8375C161.251 89.9078 161.237 89.9794 161.223 90.0497C160.746 92.3415 160.143 94.528 159.409 96.7531C158.001 101.01 155.953 105.67 155.563 110.285C154.339 110.264 153.114 110.246 151.89 110.218C148.832 110.149 145.218 109.217 142.199 109.859C138.69 108.28 135.497 106.354 132.488 103.927C131.006 102.73 129.585 101.457 128.157 100.197C126.896 99.0865 125.855 97.7635 124.476 96.8337C124.276 95.0692 124.049 93.3151 123.834 91.586C123.584 89.5664 123.283 87.5611 122.801 85.5923L122.473 84.3566C122.443 84.2485 122.413 84.1418 122.382 84.0337L121.16 83.298C121.162 83.3097 121.166 83.3201 121.168 83.3331C115.287 78.7822 108.937 74.6633 102.181 71.6188C101.743 68.3725 100.617 65.225 99.2528 62.2602C98.823 61.3266 98.1329 59.54 97.1133 58.6103L96.4167 57.9436C88.4552 56.1349 85.765 55.838 77.6082 54.6374C71.9035 53.7975 65.9162 52.7675 60.0095 52.4472C61.7401 49.2608 63.3404 46.0235 64.9891 42.7943L64.9897 42.7947ZM59.4243 53.552C65.3907 54.2057 71.3471 54.9375 77.2901 55.8073C83.3608 56.6954 89.4341 57.34 95.4681 58.3296C97.5568 59.6786 98.5282 63.4199 99.316 65.533C100.004 67.3756 100.511 69.2792 101.112 71.1507C100.836 71.0309 100.564 70.9007 100.285 70.7861C89.8622 66.4601 79.0336 63.3 68.1293 60.4588C64.4064 59.49 60.6508 58.654 56.8759 57.9144C57.8734 56.5445 58.6651 54.9741 59.4242 53.5521L59.4243 53.552ZM165.777 119.029C147.123 120.028 128.475 121.071 109.774 120.782C94.5154 120.546 79.2409 120.145 63.9913 119.598C56.4088 119.326 48.842 118.84 41.2646 118.461C37.5274 118.275 33.7955 118.166 30.0896 117.601C27.6663 117.23 25.4433 116.426 23.1922 115.664C20.5006 110.083 17.8495 104.48 15.4744 98.7521C18.205 99.7495 21.0151 100.474 23.8616 101.11C31.0157 102.712 38.0604 104.562 45.2898 105.826C60.7854 108.537 76.3007 111.512 91.9326 113.322C116.687 116.191 141.606 117.708 166.484 116.778C166.247 117.528 166.006 118.277 165.779 119.029L165.777 119.029ZM166.901 115.456C158.416 115.602 149.934 115.568 141.432 115.15C125.661 114.374 109.87 113.24 94.1728 111.543C78.3215 109.829 62.6072 106.815 46.8933 104.164C39.6052 102.933 32.5098 101.115 25.2903 99.584C22.1261 98.9134 18.962 98.2506 15.8758 97.2727C15.476 97.1464 15.0841 96.9967 14.696 96.8391C14.5333 96.4354 14.3692 96.033 14.2103 95.6281C11.4211 88.5103 9.10336 81.2132 7.07324 73.8468C6.05624 70.1539 4.7541 66.5197 3.91028 62.7835C3.41935 60.6128 3.08864 57.6048 4.61346 55.7584C5.58095 54.5864 7.43393 54.3599 8.89238 53.9887C10.3742 54.0096 11.8704 54.1489 13.3196 54.1658C15.868 54.1971 18.4033 54.3169 20.9438 54.4771C26.3567 54.8169 31.8064 55.7258 37.1777 56.4707C42.9764 57.2754 48.7591 58.1921 54.5068 59.2951C54.9039 59.3953 55.1865 59.4149 55.5042 59.4878C59.9301 60.3563 64.3314 61.3356 68.699 62.4815C78.5486 65.0702 88.3225 67.9908 97.7944 71.7504C106.302 75.1256 113.75 80.0945 121.491 84.7955L122.897 95.8611C122.349 95.447 121.779 95.0525 121.21 94.6566C121.106 93.9899 120.994 93.3232 120.9 92.6591C120.598 90.5196 119.686 88.1002 119.677 85.9257C119.754 85.828 119.775 85.6978 119.677 85.5598C119.668 85.5454 119.655 85.5311 119.643 85.5181C119.634 85.5038 119.625 85.4881 119.61 85.4764C118.517 83.9789 116.488 83.0987 114.924 82.182C113.961 81.6181 112.174 80.4371 111.016 80.9892C110.953 81.0191 110.899 81.1103 110.906 81.1819C110.91 81.2158 110.906 81.2627 110.93 81.29C111.102 81.4957 111.515 81.5127 111.757 81.5791C112.613 81.8148 113.449 82.3369 114.212 82.7744C115.914 83.7472 117.608 84.7368 119.112 85.9934C119.156 86.0311 119.206 86.0507 119.258 86.0624C119.075 87.414 119.53 88.9675 119.715 90.2606C119.884 91.4365 119.98 92.6761 120.114 93.9105C117.833 92.3987 115.435 91.021 112.968 89.7503C112.542 86.7592 111.852 83.7706 110.881 81.2184C110.829 81.0817 110.61 81.0921 110.614 81.2536C110.666 83.6157 110.838 86.2566 111.208 88.862C110.8 88.6628 110.395 88.461 109.986 88.2669C109.745 86.6926 109.456 85.1248 109.198 83.587C109.101 83.0088 109.098 81.9945 108.801 81.2783C108.818 81.2184 108.823 81.1533 108.805 81.0803C108.451 79.7209 106.089 79.3966 105.021 78.8289C103.441 77.9864 101.522 76.5592 99.6468 76.4525C99.583 76.3978 99.5166 76.3496 99.4437 76.3066C99.346 76.2493 99.2496 76.3535 99.2874 76.4498H99.2431C99.1559 76.4538 99.1129 76.554 99.1728 76.6191C99.264 76.7181 99.3668 76.8092 99.4684 76.9043C100.105 78.6218 99.9294 81.2966 100.064 82.962C100.09 83.2771 100.114 83.5961 100.142 83.9178C99.5439 83.6678 98.9489 83.4178 98.3564 83.1716C98.2327 83.1196 98.1077 83.0727 97.9852 83.0206C97.9084 82.2614 97.8316 81.5023 97.7574 80.747C97.6167 79.3016 97.4162 77.8615 96.8159 76.5581C97.2261 74.8145 95.1166 73.7754 93.7936 73.1569C92.007 72.3222 89.7594 70.5904 87.7009 71.0917C87.486 71.1438 87.3611 71.3808 87.4196 71.5878C87.4444 71.6777 87.4678 71.7675 87.4939 71.8561C87.529 71.985 87.628 72.0592 87.7426 72.0813C88.1528 74.45 88.3064 77.0503 88.6176 79.6144C87.9574 79.4022 87.2959 79.1874 86.6331 78.9816C86.585 78.7277 86.5394 78.4751 86.5003 78.2198C86.1657 76.0713 85.9065 73.9239 85.1838 71.8771C85.2398 71.8354 85.2776 71.769 85.2815 71.6974C85.3987 70.071 81.724 69.2832 80.5469 68.9434C79.0234 68.5032 77.5285 67.9615 76.0036 67.5396C75.3851 67.3704 74.678 67.1034 74.1051 67.4745C73.9853 67.5527 73.9124 67.7285 74.0048 67.8587C74.0139 67.873 74.0256 67.8873 74.0348 67.9016C73.9736 67.8808 73.8928 67.9003 73.8798 67.972C73.8746 68.0019 73.8681 68.0318 73.8629 68.0618C73.8577 68.0917 73.8759 68.1269 73.9111 68.1256C74.1702 68.1087 75.2848 74.2443 75.5974 75.8801C74.8056 75.6769 74.0165 75.4712 73.2261 75.272C73.0008 74.1821 72.7769 73.0921 72.5789 71.9957C72.3667 70.8277 72.2573 68.9773 71.6753 67.6438C71.7143 67.5761 71.7365 67.4941 71.726 67.4185C71.2768 64.2725 65.0433 63.9013 62.7022 63.1213C61.5641 62.7424 58.4272 61.4936 57.1615 62.5275C57.1224 62.4233 56.9623 62.4194 56.9193 62.5366C56.8594 62.6994 56.819 62.8687 56.7852 63.0445C56.7722 63.0744 56.7539 63.0965 56.7422 63.1265C56.7305 63.1564 56.7409 63.1812 56.7565 63.1994C56.4453 65.1722 57.4597 67.8247 57.8894 69.5681C58.0717 70.3091 58.254 71.0839 58.4519 71.8677C57.9519 71.7688 57.4532 71.6659 56.9531 71.5708C56.651 70.3234 56.3294 69.0811 56.0104 67.839C56.0664 67.8442 56.1237 67.8507 56.1784 67.8533C56.3216 67.8663 56.3763 67.6462 56.2513 67.585C56.1393 67.529 56.0221 67.4822 55.9062 67.4314C55.5546 66.0589 55.2082 64.689 54.8931 63.3151C54.9452 63.1263 54.91 62.918 54.7603 62.7474C54.7564 62.7292 54.7512 62.7096 54.7473 62.6901C54.7342 62.6328 54.6874 62.6198 54.6444 62.6328C54.3657 62.431 54.0767 62.263 53.7797 62.108C53.656 62.0013 53.4217 61.9231 53.2081 61.8333C51.7914 61.2304 50.2249 60.9973 48.7275 60.5858C47.0699 60.1327 44.2963 59.7902 42.6998 60.4361C42.485 60.522 42.343 60.8111 42.5527 60.996C42.6165 61.052 42.6816 61.1093 42.7454 61.1653C42.7636 61.1822 42.7871 61.1822 42.8066 61.177C43.7155 63.9102 44.0345 66.801 44.6973 69.5928C43.9655 69.4952 43.2337 69.3962 42.5019 69.309C42.3847 68.8819 42.2727 68.4521 42.1738 68.0159C41.6972 65.8791 41.425 63.552 40.5591 61.5195C40.869 59.2538 36.6202 59.5441 35.2604 59.4283C34.3346 59.3501 30.9452 58.7134 30.6221 60.0728C30.6078 60.134 30.6221 60.1926 30.6508 60.2395C30.6508 60.2434 30.6495 60.2447 30.6469 60.2486C30.6417 60.2604 30.6352 60.2734 30.6339 60.2864C30.1273 61.5352 31.3579 64.6917 31.6339 65.9741C31.8006 66.7449 31.979 67.5406 32.1847 68.3297C31.7199 68.2984 31.2576 68.2568 30.7927 68.2268C30.3057 66.7671 29.8447 65.2982 29.4879 63.7879C29.3069 63.0209 29.1767 61.1666 28.484 60.3683C28.0673 59.3657 26.9005 59.1443 25.7455 59.0805C23.2024 58.9399 20.0185 58.5518 17.6684 59.6352C17.5043 59.7095 17.4926 59.9022 17.5694 60.0389C17.5512 60.0298 17.5317 60.0141 17.5134 60.005C17.4158 59.9582 17.2817 60.0597 17.3533 60.1652C18.4601 61.8268 18.8716 64.4701 19.5266 66.3399C19.7063 66.8517 19.8847 67.366 20.0657 67.8817C19.1398 67.8804 18.2153 67.8817 17.2895 67.8947C16.5238 65.4049 15.7347 62.91 14.6969 60.5712C14.6826 60.5361 14.6227 60.5205 14.5927 60.5426C14.568 60.5608 14.551 60.5869 14.5315 60.6077C13.6408 59.2287 11.6329 59.1779 9.76689 59.2613C8.53895 59.3172 4.8446 59.2652 4.74593 60.9437C4.73421 60.9293 4.72509 60.9124 4.71467 60.8968C4.64175 60.803 4.49201 60.9228 4.55451 61.0218L4.6717 61.2119C4.69254 61.2458 4.74462 61.2366 4.75634 61.1989C4.76155 61.2379 4.77327 61.277 4.78239 61.3187C4.96859 63.0636 5.73038 64.9269 6.31505 66.5807C6.52209 67.1653 6.72784 67.7552 6.94398 68.3425C6.84632 68.3672 6.85283 68.5053 6.96091 68.5157C6.97784 68.517 6.99477 68.517 7.01169 68.5196L21.6636 69.1147C24.3929 69.1993 27.0936 69.4038 29.7877 69.6655L46.264 71.525C46.669 71.5771 47.074 71.6317 47.4789 71.6877L48.7394 71.8674C50.164 72.0784 51.5859 72.3193 53.0053 72.6175C54.034 72.8336 55.0666 73.0472 56.0966 73.262L60.3729 74.1566C63.0202 74.7153 65.6609 75.2921 68.29 75.9302C69.5896 76.2453 70.8918 76.5669 72.1979 76.8912L77.6216 78.2897C80.334 79.0098 83.0426 79.7754 85.7274 80.5984L90.4073 82.1167C92.5911 82.8629 94.7526 83.6546 96.8737 84.5179C96.9649 84.5557 97.0547 84.596 97.1459 84.6338L101.669 86.6053C104.157 87.733 106.615 88.9205 109.07 90.1185L110.331 90.7331C110.774 90.9493 111.217 91.1642 111.658 91.3803L113.277 92.1694C115.619 93.3062 117.969 94.4248 120.345 95.4847L121.411 95.9496C121.944 96.1814 122.475 96.4157 123.013 96.6423L123.203 98.1437L124.702 98.7805C125.633 99.8482 126.834 101.024 127.075 101.282C128.573 102.887 130.325 104.326 132.026 105.712C135.076 108.192 138.463 110.139 142.426 110.567C142.516 110.577 142.589 110.536 142.641 110.472C146.775 111.768 151.149 112.122 155.522 112.221L156.261 112.234C158.616 112.273 160.963 112.252 163.271 112.276C164.833 112.29 166.396 112.293 167.958 112.294C167.594 113.359 167.245 114.405 166.902 115.456L166.901 115.456ZM108.701 87.668C106.254 86.5299 103.781 85.4556 101.336 84.4256C101.163 83.2419 100.987 82.0583 100.816 80.8771C100.695 80.0346 100.691 78.6699 100.348 77.6125C101.296 78.2701 102.392 78.7975 103.344 79.334C104.07 79.7429 104.809 80.1609 105.58 80.4838C106.392 80.8237 107.49 80.8614 108.163 81.4578C108.211 81.5008 108.263 81.5229 108.319 81.5399C108.581 82.8668 108.433 84.9294 108.522 85.8461C108.581 86.4451 108.637 87.0545 108.701 87.6678L108.701 87.668ZM96.9269 82.5974C94.6573 81.6897 92.3473 80.8538 90.0139 80.0777C89.8771 79.338 89.743 78.5997 89.6258 77.8653C89.351 76.1777 89.2377 73.4134 88.0619 71.9833C88.0906 71.9546 88.1192 71.9286 88.1492 71.9026C88.2195 71.8388 88.2195 71.7098 88.1492 71.6473C88.8302 72.2659 89.954 72.4404 90.7795 72.8792C91.3993 73.2099 92.0139 73.5251 92.6611 73.7959C94.2927 74.4808 95.2863 75.0134 96.2513 76.3833C96.6993 78.412 96.7709 80.5152 96.9271 82.5973L96.9269 82.5974ZM78.5508 70.5523C80.0093 70.6786 81.3921 70.9781 82.7908 71.2724C83.4353 71.5485 84.0786 71.7789 84.7075 71.8714C84.9445 73.8559 85.0135 76.2727 85.3391 78.5868C82.5707 77.7547 79.7801 76.9839 76.9869 76.2494C76.6822 75.2247 76.3853 74.1973 76.121 73.162C75.9413 72.4563 75.7563 71.1737 75.4022 70.0368C76.4335 70.2621 77.5169 70.4639 78.5508 70.5525L78.5508 70.5523ZM75.2225 69.5145C74.9894 68.9103 74.6926 68.3829 74.3019 68.073C74.7329 67.9858 76.1562 68.7631 76.3424 68.8426C76.9361 69.0913 77.5469 69.2996 78.1628 69.4924C77.1914 69.3296 75.9283 69.1317 75.2225 69.5145V69.5145ZM63.7582 69.0665C66.1984 69.3113 68.6491 69.3817 71.0853 69.6512C71.334 71.2646 71.6478 73.0094 71.6895 73.2817C71.7767 73.8143 71.8457 74.3755 71.9147 74.9511C70.8639 74.6881 69.8104 74.4263 68.7635 74.1672C65.7594 73.4275 62.7412 72.7478 59.7096 72.1293C59.625 71.8546 59.5378 71.5824 59.457 71.3077C59.1641 70.2946 58.7552 69.1734 58.3632 68.0223C60.155 68.3817 61.9468 68.8856 63.7582 69.0666L63.7582 69.0665ZM58.1915 67.4974C57.6928 65.9895 57.2565 64.4465 57.1849 63.0375C58.5587 62.4606 62.2009 64.1574 63.2803 64.5389C65.9315 65.4777 68.4159 65.9543 70.7938 67.431C70.8315 67.8698 70.9136 68.491 71.0138 69.1668C68.9681 68.461 66.8559 68.3373 64.7021 68.1667C62.4976 67.9909 60.3999 67.3424 58.1914 67.4974L58.1915 67.4974ZM50.045 66.638C49.9018 66.6771 49.8341 66.8203 49.8901 66.944C49.6908 67.3412 49.4942 67.7409 49.2989 68.1355C48.9668 68.8022 48.6322 69.4624 48.2962 70.1213C47.4485 69.995 46.6008 69.8582 45.7518 69.7411C45.464 68.715 45.1763 67.6862 44.908 66.6536C44.4171 64.7642 44.1124 62.7564 43.0486 61.0946C43.6293 60.9996 44.951 61.3173 45.3391 61.3434C46.3821 61.4137 47.3926 61.4566 48.4226 61.6676C49.7221 61.9345 51.0829 62.2991 52.3485 62.8161C51.4396 63.9867 50.7182 65.3071 50.0449 66.638L50.045 66.638ZM53.1988 63.1991C53.4957 63.345 53.7887 63.4973 54.0674 63.664C54.2276 63.7617 54.3812 63.7747 54.5114 63.7343C54.5114 64.8568 54.6911 65.9636 54.9021 67.0679C53.7874 66.7358 52.5829 66.6017 51.4149 66.5887C52.0034 65.4571 52.5998 64.3294 53.1988 63.1991V63.1991ZM51.0672 67.2657C52.3746 67.491 53.7106 67.6355 55.0334 67.7606C55.1754 68.4833 55.3186 69.2059 55.4215 69.9338C55.4866 70.4 55.5673 70.8727 55.6507 71.3428C53.6141 70.9652 51.5724 70.6279 49.5253 70.3089C50.0293 69.2841 50.5488 68.2736 51.0671 67.2657H51.0672ZM41.292 69.1877C38.6694 68.8869 36.0403 68.6278 33.4088 68.4312C33.2148 67.8152 33.026 67.1967 32.858 66.5756C32.2955 64.4947 31.8423 62.3227 30.9348 60.3579C32.1562 60.4009 33.375 60.3488 34.6016 60.4477C35.4194 60.5154 36.2293 60.5845 37.0523 60.6014C38.4717 60.6313 39.2087 61.0871 40.1697 61.9739C40.7179 64.2865 40.8507 66.7971 41.2922 69.188L41.292 69.1877ZM29.4006 68.1616C26.6582 68.0158 23.9146 67.9259 21.1684 67.9038C20.6762 66.6667 20.1697 65.4362 19.6775 64.2109C19.2569 63.1653 18.8389 60.9959 17.7841 60.1937C17.7919 60.1937 17.7984 60.1976 17.8088 60.1976C19.8233 60.1025 21.8038 60.2106 23.8159 60.2418C25.3407 60.2666 26.7653 60.014 28.0701 60.8734C28.7186 63.2537 28.9022 65.7603 29.4009 68.1615L29.4006 68.1616ZM16.0158 67.9285C13.2591 67.9858 10.4998 68.1082 7.74464 68.3035C7.39306 67.4155 7.03757 66.5287 6.69772 65.6432C6.15602 64.2317 5.85393 62.7199 5.06482 61.436C5.49974 59.9814 8.53902 60.0935 9.76043 60.0231C10.7345 59.9658 11.6798 59.9945 12.6356 60.221C13.2906 60.3747 13.8726 61.1065 14.3505 61.7407C14.4716 62.6574 14.9222 63.7929 15.0316 64.2148C15.3493 65.4375 15.6475 66.6967 16.016 67.9287L16.0158 67.9285Z" fill="white" stroke="white"/>
<path d="M16.363 69.0121L7.86914 68.6162C10.6935 68.8636 13.5271 68.9496 16.363 69.0121Z" fill="white" stroke="white"/>
<path d="M38.1405 74.989C35.3995 73.666 30.9371 76.5555 31.9708 79.7196C31.9825 79.7548 32.0099 79.7769 32.0411 79.7899C31.8732 82.5323 33.8746 85.7266 35.5714 87.5781C37.9439 90.1668 41.784 89.1784 42.8558 86.0025C44.24 81.9072 41.9039 76.8052 38.1405 74.9888L38.1405 74.989ZM41.7294 85.694C41.3426 87.4584 39.7866 88.0522 38.1485 87.8243C36.6966 87.6225 35.634 85.9049 34.9569 84.789C33.6769 82.6742 32.9216 80.35 33.436 77.9436C33.6053 77.4618 33.7902 77.0008 34.0545 76.5971C34.1613 76.5112 34.2694 76.4239 34.3697 76.3471C36.3359 74.8431 38.5509 76.3653 39.9403 77.7495C41.8727 79.6754 42.2907 83.1365 41.7295 85.694H41.7294Z" fill="white" stroke="white"/>
<path d="M60.2411 78.2258C57.5001 76.9028 53.0377 79.7923 54.0727 82.9564C54.0845 82.9916 54.1118 83.0137 54.1431 83.0268C53.9751 85.7691 55.9765 88.9634 57.6719 90.8149C60.0445 93.4036 63.8846 92.4152 64.9564 89.2393C66.3393 85.1467 64.0045 80.0421 60.2411 78.2256L60.2411 78.2258ZM63.83 88.9321C63.4432 90.6966 61.8872 91.2903 60.2491 91.0625C58.7946 90.8606 57.7346 89.1431 57.0575 88.0271C55.7775 85.9124 55.0222 83.5882 55.5366 81.1817C55.7059 80.6999 55.8908 80.239 56.1551 79.8353C56.2619 79.7493 56.37 79.6621 56.4703 79.5826C58.4365 78.0787 60.6515 79.6009 62.0409 80.9851C63.9746 82.9122 64.39 86.3734 63.8301 88.9322L63.83 88.9321Z" fill="white" stroke="white"/>
<path d="M79.7362 82.1928C76.9952 80.8697 72.5328 83.7592 73.5665 86.9234C73.5782 86.9585 73.6056 86.9807 73.6368 86.9937C73.4689 89.736 75.4703 92.9304 77.1657 94.7818C79.5383 97.3705 83.3784 96.3822 84.4502 93.2062C85.8356 89.1109 83.4996 84.009 79.7362 82.1925L79.7362 82.1928ZM83.3265 92.8964C82.9397 94.6608 81.3836 95.2546 79.7456 95.0267C78.291 94.8249 77.2311 93.1073 76.554 91.9914C75.274 89.8766 74.5187 87.5524 75.033 85.146C75.2023 84.6642 75.3872 84.2032 75.6516 83.7995C75.7584 83.7136 75.8664 83.6263 75.9667 83.5469C77.933 82.0429 80.148 83.5651 81.5374 84.9493C83.4685 86.8765 83.8865 90.339 83.3266 92.8964L83.3265 92.8964Z" fill="white" stroke="white"/>
</g>
<path d="M128 7.5L93 167" stroke="white" stroke-width="3" stroke-linecap="round"/>
</svg>
