<svg width="170" height="92" viewBox="0 0 170 92" fill="none" xmlns="http://www.w3.org/2000/svg">
<path d="M167.554 78.4578C166.165 78.4396 164.777 78.4239 163.39 78.4096C160.857 78.3836 158.322 78.3497 155.788 78.3093C156.912 74.2244 157.929 70.1175 159.206 66.0613C160.046 63.3919 160.421 60.6246 160.942 57.8995L161.226 56.5009L160.565 56.4267C157.215 56.0465 153.863 55.6728 150.514 55.2912C146.304 54.8134 142.05 54.4657 137.877 53.7339C138.222 51.3717 138.586 49.0226 138.885 46.6994C139.292 43.5352 139.615 40.3631 139.859 37.1832C139.967 35.7717 140.09 34.3627 140.23 32.9526C140.234 32.9227 140.238 32.8875 140.241 32.855C140.916 32.8133 141.591 32.7781 142.265 32.7339C147.207 32.4148 152.147 32.1127 157.092 31.8549C159.232 31.7429 161.374 31.6492 163.514 31.5632L164.995 31.502L164.836 30.2194C164.621 28.6399 164.349 27.0734 164.109 25.5614C163.907 24.2814 163.532 23.0287 163.129 21.7826L162.703 20.4752L161.748 20.2994C156.195 19.2837 150.627 18.3448 145.049 17.475C147.14 15.4267 149.251 13.3981 151.37 11.3756C154.203 8.66843 157.385 6.15398 160.1 3.26314L161.054 2.20058L159.648 2.05474C158.868 1.974 158.088 1.89588 157.309 1.81514C154.665 1.5469 151.998 1.29818 149.327 1.14063L146.094 1L144.634 1.92192C141.794 3.73973 138.968 5.58481 136.149 7.38958C132.494 9.73215 128.736 12.0825 125.166 14.6517C123.87 14.4876 122.577 14.3209 121.281 14.1647C111.174 12.9289 101.043 11.8859 90.898 11.0473C85.628 10.6124 80.353 10.2412 75.0753 9.91183C71.6988 9.70088 68.1686 9.27899 64.7217 9.36102C64.7295 9.3467 64.7361 9.33238 64.7439 9.31805C64.8559 9.10189 64.5616 8.93783 64.4222 9.12924C64.3623 9.21128 64.3089 9.29852 64.2504 9.38316L63.3297 10.7348C61.2853 13.8392 59.5625 17.1375 57.7514 20.3904L57.1745 21.4139C56.3568 22.8554 55.5169 24.2812 54.6093 25.6681C48.2066 24.4532 41.7492 23.5144 35.2905 22.7227C29.8408 22.0546 24.3432 21.3241 18.8558 21.1249C15.9703 21.0207 13.0405 21.2095 10.156 21.315C9.34993 21.345 8.56215 21.3332 7.78864 21.3749C5.90833 21.039 4.07875 21.4739 2.576 22.724C0.290697 24.6264 1.03424 28.6956 1.4835 31.1751C2.22445 35.26 3.83391 39.2903 4.9367 43.2942C6.19458 47.8581 7.6374 52.3664 9.20396 56.834C10.0556 59.2612 10.9658 61.6636 11.9177 64.0494L12.7003 66.0677C12.712 66.073 12.725 66.0769 12.7354 66.0821C14.8619 71.258 17.1837 76.3534 19.5848 81.4087C19.8505 81.9673 20.1148 82.5233 20.3804 83.0819L20.8232 84.013L22.7907 84.9206C24.3585 85.6355 25.9472 86.3061 27.7063 86.771C30.7404 87.5731 33.9867 87.7281 37.1002 87.9338C44.5837 88.426 52.0608 88.9925 59.5532 89.3415C75.1908 90.0681 90.8558 90.3701 106.503 90.7022C125.79 91.1111 145.035 90.167 164.253 88.7958L165.952 88.6721L166.399 86.9416C166.604 86.211 166.838 85.4662 167.078 84.7161L167.496 83.4244C167.832 82.3983 168.174 81.3592 168.49 80.3162L169.011 78.4775L167.554 78.4578ZM137.851 8.13695C140.941 6.21627 144.635 4.36472 147.916 2.14059C150.683 2.33461 153.444 2.57682 156.204 2.84767C156.97 2.92189 157.736 3.00393 158.503 3.08727C155.796 5.51971 153.074 7.93522 150.406 10.4144C148.069 12.5877 145.497 14.8013 143.134 17.1854C137.908 16.3846 132.676 15.6359 127.437 14.9509C130.91 12.6709 134.341 10.319 137.851 8.13687L137.851 8.13695ZM63.9897 10.7947C82.7251 12.4315 101.465 13.5357 120.156 15.7753C121.151 15.8951 122.146 16.0279 123.141 16.1503L125.183 16.4081C130.714 17.1022 136.238 17.847 141.757 18.6244L143.625 18.8822C149.803 19.7599 155.976 20.6805 162.142 21.6298C162.296 22.1507 162.44 22.6624 162.551 23.1546C163.07 25.4738 163.236 27.8722 163.413 30.2657C161.303 30.3386 159.194 30.4285 157.09 30.534C151.6 30.81 146.034 31.0301 140.494 31.4285L139.366 31.5106L139.095 32.926C138.294 37.4173 138.023 42.0736 137.422 46.5035C137.107 48.8252 136.811 51.1485 136.544 53.4739L136.39 54.7917C136.364 55.0339 136.333 55.2774 136.306 55.5222L137.682 55.0704C137.871 55.1094 138.06 55.1511 138.25 55.1875C141.91 55.9142 145.676 56.1954 149.378 56.6356C152.992 57.0666 156.625 57.4872 160.266 57.8375C160.251 57.9078 160.237 57.9794 160.223 58.0497C159.746 60.3415 159.143 62.528 158.409 64.7531C157.001 69.01 154.953 73.6703 154.563 78.2852C153.339 78.2644 152.114 78.2462 150.89 78.2175C147.832 78.1485 144.218 77.2175 141.199 77.8595C137.69 76.2799 134.497 74.3539 131.488 71.9268C130.006 70.7301 128.585 69.4566 127.157 68.1972C125.896 67.0865 124.855 65.7635 123.476 64.8337C123.276 63.0692 123.049 61.3151 122.834 59.586C122.584 57.5664 122.283 55.5611 121.801 53.5923L121.473 52.3566C121.443 52.2485 121.413 52.1418 121.382 52.0337L120.16 51.298C120.162 51.3097 120.166 51.3201 120.168 51.3331C114.287 46.7822 107.937 42.6633 101.181 39.6188C100.743 36.3725 99.6174 33.225 98.2528 30.2602C97.823 29.3266 97.1329 27.54 96.1133 26.6103L95.4167 25.9436C87.4552 24.1349 84.765 23.838 76.6082 22.6374C70.9035 21.7975 64.9162 20.7675 59.0095 20.4472C60.7401 17.2608 62.3404 14.0235 63.9891 10.7943L63.9897 10.7947ZM58.4243 21.552C64.3907 22.2057 70.3471 22.9375 76.2901 23.8073C82.3608 24.6954 88.4341 25.34 94.4681 26.3296C96.5568 27.6786 97.5282 31.4199 98.316 33.533C99.0036 35.3756 99.5114 37.2792 100.112 39.1507C99.8357 39.0309 99.5635 38.9007 99.2848 38.7861C88.8622 34.4601 78.0336 31.3 67.1293 28.4588C63.4064 27.49 59.6508 26.654 55.8759 25.9144C56.8734 24.5445 57.6651 22.9741 58.4242 21.5521L58.4243 21.552ZM164.777 87.0292C146.123 88.0279 127.475 89.071 108.774 88.7819C93.5154 88.5462 78.2409 88.1451 62.9913 87.5982C55.4088 87.3261 47.842 86.8404 40.2646 86.4614C36.5274 86.2752 32.7955 86.1658 29.0896 85.6007C26.6663 85.2296 24.4433 84.4262 22.1922 83.6644C19.5006 78.0834 16.8495 72.4801 14.4744 66.7521C17.205 67.7495 20.0151 68.4735 22.8616 69.1103C30.0157 70.7119 37.0604 72.5621 44.2898 73.8255C59.7854 76.5366 75.3007 79.5122 90.9326 81.322C115.687 84.1906 140.606 85.7076 165.484 84.7778C165.247 85.5279 165.006 86.2766 164.779 87.0293L164.777 87.0292ZM165.901 83.456C157.416 83.6018 148.934 83.568 140.432 83.15C124.661 82.3739 108.87 81.2397 93.1728 79.5431C77.3215 77.8294 61.6072 74.8148 45.8933 72.1637C38.6052 70.9331 31.5098 69.1153 24.2903 67.584C21.1261 66.9134 17.962 66.2506 14.8758 65.2727C14.476 65.1464 14.0841 64.9967 13.696 64.8391C13.5333 64.4354 13.3692 64.033 13.2103 63.6281C10.4211 56.5103 8.10336 49.2132 6.07324 41.8468C5.05624 38.1539 3.7541 34.5197 2.91028 30.7835C2.41935 28.6128 2.08864 25.6048 3.61346 23.7584C4.58095 22.5864 6.43393 22.3599 7.89238 21.9887C9.37423 22.0096 10.8704 22.1489 12.3196 22.1658C14.868 22.1971 17.4033 22.3169 19.9438 22.4771C25.3567 22.8169 30.8064 23.7258 36.1777 24.4707C41.9764 25.2754 47.7591 26.1921 53.5068 27.2951C53.9039 27.3953 54.1865 27.4149 54.5042 27.4878C58.9301 28.3563 63.3314 29.3356 67.699 30.4815C77.5486 33.0702 87.3225 35.9908 96.7944 39.7504C105.302 43.1256 112.75 48.0945 120.491 52.7955L121.897 63.8611C121.349 63.447 120.779 63.0525 120.21 62.6566C120.106 61.9899 119.994 61.3232 119.9 60.6591C119.598 58.5196 118.686 56.1002 118.677 53.9257C118.754 53.828 118.775 53.6978 118.677 53.5598C118.668 53.5454 118.655 53.5311 118.643 53.5181C118.634 53.5038 118.625 53.4881 118.61 53.4764C117.517 51.9789 115.488 51.0987 113.924 50.182C112.961 49.6181 111.174 48.4371 110.016 48.9892C109.953 49.0191 109.899 49.1103 109.906 49.1819C109.91 49.2158 109.906 49.2627 109.93 49.29C110.102 49.4957 110.515 49.5127 110.757 49.5791C111.613 49.8148 112.449 50.3369 113.212 50.7744C114.914 51.7472 116.608 52.7368 118.112 53.9934C118.156 54.0311 118.206 54.0507 118.258 54.0624C118.075 55.414 118.53 56.9675 118.715 58.2606C118.884 59.4365 118.98 60.6761 119.114 61.9105C116.833 60.3987 114.435 59.021 111.968 57.7503C111.542 54.7592 110.852 51.7706 109.881 49.2184C109.829 49.0817 109.61 49.0921 109.614 49.2536C109.666 51.6157 109.838 54.2566 110.208 56.862C109.8 56.6628 109.395 56.461 108.986 56.2669C108.745 54.6926 108.456 53.1248 108.198 51.587C108.101 51.0088 108.098 49.9945 107.801 49.2783C107.818 49.2184 107.823 49.1533 107.805 49.0803C107.451 47.7209 105.089 47.3966 104.021 46.8289C102.441 45.9864 100.522 44.5592 98.6468 44.4525C98.583 44.3978 98.5166 44.3496 98.4437 44.3066C98.346 44.2493 98.2496 44.3535 98.2874 44.4498H98.2431C98.1559 44.4538 98.1129 44.554 98.1728 44.6191C98.264 44.7181 98.3668 44.8092 98.4684 44.9043C99.1052 46.6218 98.9294 49.2966 99.0635 50.962C99.0895 51.2771 99.1143 51.5961 99.1416 51.9178C98.5439 51.6678 97.9489 51.4178 97.3564 51.1716C97.2327 51.1196 97.1077 51.0727 96.9852 51.0206C96.9084 50.2614 96.8316 49.5023 96.7574 48.747C96.6167 47.3016 96.4162 45.8615 95.8159 44.5581C96.2261 42.8145 94.1166 41.7754 92.7936 41.1569C91.007 40.3222 88.7594 38.5904 86.7009 39.0917C86.486 39.1438 86.3611 39.3808 86.4196 39.5878C86.4444 39.6777 86.4678 39.7675 86.4939 39.8561C86.529 39.985 86.628 40.0592 86.7426 40.0813C87.1528 42.45 87.3064 45.0503 87.6176 47.6144C86.9574 47.4022 86.2959 47.1874 85.6331 46.9816C85.585 46.7277 85.5394 46.4751 85.5003 46.2198C85.1657 44.0713 84.9065 41.9239 84.1838 39.8771C84.2398 39.8354 84.2776 39.769 84.2815 39.6974C84.3987 38.071 80.724 37.2832 79.5469 36.9434C78.0234 36.5032 76.5285 35.9615 75.0036 35.5396C74.3851 35.3704 73.678 35.1034 73.1051 35.4745C72.9853 35.5527 72.9124 35.7285 73.0048 35.8587C73.0139 35.873 73.0256 35.8873 73.0348 35.9016C72.9736 35.8808 72.8928 35.9003 72.8798 35.972C72.8746 36.0019 72.8681 36.0318 72.8629 36.0618C72.8577 36.0917 72.8759 36.1269 72.9111 36.1256C73.1702 36.1087 74.2848 42.2443 74.5974 43.8801C73.8056 43.6769 73.0165 43.4712 72.2261 43.272C72.0008 42.1821 71.7769 41.0921 71.5789 39.9957C71.3667 38.8277 71.2573 36.9773 70.6753 35.6438C70.7143 35.5761 70.7365 35.4941 70.726 35.4185C70.2768 32.2725 64.0433 31.9013 61.7022 31.1213C60.5641 30.7424 57.4272 29.4936 56.1615 30.5275C56.1224 30.4233 55.9623 30.4194 55.9193 30.5366C55.8594 30.6994 55.819 30.8687 55.7852 31.0445C55.7722 31.0744 55.7539 31.0965 55.7422 31.1265C55.7305 31.1564 55.7409 31.1812 55.7565 31.1994C55.4453 33.1722 56.4597 35.8247 56.8894 37.5681C57.0717 38.3091 57.254 39.0839 57.4519 39.8677C56.9519 39.7688 56.4532 39.6659 55.9531 39.5708C55.651 38.3234 55.3294 37.0811 55.0104 35.839C55.0664 35.8442 55.1237 35.8507 55.1784 35.8533C55.3216 35.8663 55.3763 35.6462 55.2513 35.585C55.1393 35.529 55.0221 35.4822 54.9062 35.4314C54.5546 34.0589 54.2082 32.689 53.8931 31.3151C53.9452 31.1263 53.91 30.918 53.7603 30.7474C53.7564 30.7292 53.7512 30.7096 53.7473 30.6901C53.7342 30.6328 53.6874 30.6198 53.6444 30.6328C53.3657 30.431 53.0767 30.263 52.7797 30.108C52.656 30.0013 52.4217 29.9231 52.2081 29.8333C50.7914 29.2304 49.2249 28.9973 47.7275 28.5858C46.0699 28.1327 43.2963 27.7902 41.6998 28.4361C41.485 28.522 41.343 28.8111 41.5527 28.996C41.6165 29.052 41.6816 29.1093 41.7454 29.1653C41.7636 29.1822 41.7871 29.1822 41.8066 29.177C42.7155 31.9102 43.0345 34.801 43.6973 37.5928C42.9655 37.4952 42.2337 37.3962 41.5019 37.309C41.3847 36.8819 41.2727 36.4521 41.1738 36.0159C40.6972 33.8791 40.425 31.552 39.5591 29.5195C39.869 27.2538 35.6202 27.5441 34.2604 27.4283C33.3346 27.3501 29.9452 26.7134 29.6221 28.0728C29.6078 28.134 29.6221 28.1926 29.6508 28.2395C29.6508 28.2434 29.6495 28.2447 29.6469 28.2486C29.6417 28.2604 29.6352 28.2734 29.6339 28.2864C29.1273 29.5352 30.3579 32.6917 30.6339 33.9741C30.8006 34.7449 30.979 35.5406 31.1847 36.3297C30.7199 36.2984 30.2576 36.2568 29.7927 36.2268C29.3057 34.7671 28.8447 33.2982 28.4879 31.7879C28.3069 31.0209 28.1767 29.1666 27.484 28.3683C27.0673 27.3657 25.9005 27.1443 24.7455 27.0805C22.2024 26.9399 19.0185 26.5518 16.6684 27.6352C16.5043 27.7095 16.4926 27.9022 16.5694 28.0389C16.5512 28.0298 16.5317 28.0141 16.5134 28.005C16.4158 27.9582 16.2817 28.0597 16.3533 28.1652C17.4601 29.8268 17.8716 32.4701 18.5266 34.3399C18.7063 34.8517 18.8847 35.366 19.0657 35.8817C18.1398 35.8804 17.2153 35.8817 16.2895 35.8947C15.5238 33.4049 14.7347 30.91 13.6969 28.5712C13.6826 28.5361 13.6227 28.5205 13.5927 28.5426C13.568 28.5608 13.551 28.5869 13.5315 28.6077C12.6408 27.2287 10.6329 27.1779 8.76689 27.2613C7.53895 27.3172 3.8446 27.2652 3.74593 28.9437C3.73421 28.9293 3.72509 28.9124 3.71467 28.8968C3.64175 28.803 3.49201 28.9228 3.55451 29.0218L3.6717 29.2119C3.69254 29.2458 3.74462 29.2366 3.75634 29.1989C3.76155 29.2379 3.77327 29.277 3.78239 29.3187C3.96859 31.0636 4.73038 32.9269 5.31505 34.5807C5.52209 35.1653 5.72784 35.7552 5.94398 36.3425C5.84632 36.3672 5.85283 36.5053 5.96091 36.5157C5.97784 36.517 5.99477 36.517 6.01169 36.5196L20.6636 37.1147C23.3929 37.1993 26.0936 37.4038 28.7877 37.6655L45.264 39.525C45.669 39.5771 46.074 39.6317 46.4789 39.6877L47.7394 39.8674C49.164 40.0784 50.5859 40.3193 52.0053 40.6175C53.034 40.8336 54.0666 41.0472 55.0966 41.262L59.3729 42.1566C62.0202 42.7153 64.6609 43.2921 67.29 43.9302C68.5896 44.2453 69.8918 44.5669 71.1979 44.8912L76.6216 46.2897C79.334 47.0098 82.0426 47.7754 84.7274 48.5984L89.4073 50.1167C91.5911 50.8629 93.7526 51.6546 95.8737 52.5179C95.9649 52.5557 96.0547 52.596 96.1459 52.6338L100.669 54.6053C103.157 55.733 105.615 56.9205 108.07 58.1185L109.331 58.7331C109.774 58.9493 110.217 59.1642 110.658 59.3803L112.277 60.1694C114.619 61.3062 116.969 62.4248 119.345 63.4847L120.411 63.9496C120.944 64.1814 121.475 64.4157 122.013 64.6423L122.203 66.1437L123.702 66.7805C124.633 67.8482 125.834 69.0241 126.075 69.2819C127.573 70.8875 129.325 72.3264 131.026 73.7119C134.076 76.1925 137.463 78.1391 141.426 78.5675C141.516 78.5766 141.589 78.5362 141.641 78.4724C145.775 79.7681 150.149 80.1222 154.522 80.2212L155.261 80.2342C157.616 80.2733 159.963 80.2525 162.271 80.2759C163.833 80.2902 165.396 80.2928 166.958 80.2941C166.594 81.3593 166.245 82.4049 165.902 83.4558L165.901 83.456ZM107.701 55.668C105.254 54.5299 102.781 53.4556 100.336 52.4256C100.163 51.2419 99.9869 50.0583 99.8163 48.8771C99.6952 48.0346 99.6913 46.6699 99.3475 45.6125C100.296 46.2701 101.392 46.7975 102.344 47.334C103.07 47.7429 103.809 48.1609 104.58 48.4838C105.392 48.8237 106.49 48.8614 107.163 49.4578C107.211 49.5008 107.263 49.5229 107.319 49.5399C107.581 50.8668 107.433 52.9294 107.522 53.8461C107.581 54.4451 107.637 55.0545 107.701 55.6678L107.701 55.668ZM95.9269 50.5974C93.6573 49.6897 91.3473 48.8538 89.0139 48.0777C88.8771 47.338 88.743 46.5997 88.6258 45.8653C88.351 44.1777 88.2377 41.4134 87.0619 39.9833C87.0906 39.9546 87.1192 39.9286 87.1492 39.9026C87.2195 39.8388 87.2195 39.7098 87.1492 39.6473C87.8302 40.2659 88.954 40.4404 89.7795 40.8792C90.3993 41.2099 91.0139 41.5251 91.6611 41.7959C93.2927 42.4808 94.2863 43.0134 95.2513 44.3833C95.6993 46.412 95.7709 48.5152 95.9271 50.5973L95.9269 50.5974ZM77.5508 38.5523C79.0093 38.6786 80.3921 38.9781 81.7908 39.2724C82.4353 39.5485 83.0786 39.7789 83.7075 39.8714C83.9445 41.8559 84.0135 44.2727 84.3391 46.5868C81.5707 45.7547 78.7801 44.9839 75.9869 44.2494C75.6822 43.2247 75.3853 42.1973 75.121 41.162C74.9413 40.4563 74.7563 39.1737 74.4022 38.0368C75.4335 38.2621 76.5169 38.4639 77.5508 38.5525L77.5508 38.5523ZM74.2225 37.5145C73.9894 36.9103 73.6926 36.3829 73.3019 36.073C73.7329 35.9858 75.1562 36.7631 75.3424 36.8426C75.9361 37.0913 76.5469 37.2996 77.1628 37.4924C76.1914 37.3296 74.9283 37.1317 74.2225 37.5145V37.5145ZM62.7582 37.0665C65.1984 37.3113 67.6491 37.3817 70.0853 37.6512C70.334 39.2646 70.6478 41.0094 70.6895 41.2817C70.7767 41.8143 70.8457 42.3755 70.9147 42.9511C69.8639 42.6881 68.8104 42.4263 67.7635 42.1672C64.7594 41.4275 61.7412 40.7478 58.7096 40.1293C58.625 39.8546 58.5378 39.5824 58.457 39.3077C58.1641 38.2946 57.7552 37.1734 57.3632 36.0223C59.155 36.3817 60.9468 36.8856 62.7582 37.0666L62.7582 37.0665ZM57.1915 35.4974C56.6928 33.9895 56.2565 32.4465 56.1849 31.0375C57.5587 30.4606 61.2009 32.1574 62.2803 32.5389C64.9315 33.4777 67.4159 33.9543 69.7938 35.431C69.8315 35.8698 69.9136 36.491 70.0138 37.1668C67.9681 36.461 65.8559 36.3373 63.7021 36.1667C61.4976 35.9909 59.3999 35.3424 57.1914 35.4974L57.1915 35.4974ZM49.045 34.638C48.9018 34.6771 48.8341 34.8203 48.8901 34.944C48.6908 35.3412 48.4942 35.7409 48.2989 36.1355C47.9668 36.8022 47.6322 37.4624 47.2962 38.1213C46.4485 37.995 45.6008 37.8582 44.7518 37.7411C44.464 36.715 44.1763 35.6862 43.908 34.6536C43.4171 32.7642 43.1124 30.7564 42.0486 29.0946C42.6293 28.9996 43.951 29.3173 44.3391 29.3434C45.3821 29.4137 46.3926 29.4566 47.4226 29.6676C48.7221 29.9345 50.0829 30.2991 51.3485 30.8161C50.4396 31.9867 49.7182 33.3071 49.0449 34.638L49.045 34.638ZM52.1988 31.1991C52.4957 31.345 52.7887 31.4973 53.0674 31.664C53.2276 31.7617 53.3812 31.7747 53.5114 31.7343C53.5114 32.8568 53.6911 33.9636 53.9021 35.0679C52.7874 34.7358 51.5829 34.6017 50.4149 34.5887C51.0034 33.4571 51.5998 32.3294 52.1988 31.1991V31.1991ZM50.0672 35.2657C51.3746 35.491 52.7106 35.6355 54.0334 35.7606C54.1754 36.4833 54.3186 37.2059 54.4215 37.9338C54.4866 38.4 54.5673 38.8727 54.6507 39.3428C52.6141 38.9652 50.5724 38.6279 48.5253 38.3089C49.0293 37.2841 49.5488 36.2736 50.0671 35.2657H50.0672ZM40.292 37.1877C37.6694 36.8869 35.0403 36.6278 32.4088 36.4312C32.2148 35.8152 32.026 35.1967 31.858 34.5756C31.2955 32.4947 30.8423 30.3227 29.9348 28.3579C31.1562 28.4009 32.375 28.3488 33.6016 28.4477C34.4194 28.5154 35.2293 28.5845 36.0523 28.6014C37.4717 28.6313 38.2087 29.0871 39.1697 29.9739C39.7179 32.2865 39.8507 34.7971 40.2922 37.188L40.292 37.1877ZM28.4006 36.1616C25.6582 36.0158 22.9146 35.9259 20.1684 35.9038C19.6762 34.6667 19.1697 33.4362 18.6775 32.2109C18.2569 31.1653 17.8389 28.9959 16.7841 28.1937C16.7919 28.1937 16.7984 28.1976 16.8088 28.1976C18.8233 28.1025 20.8038 28.2106 22.8159 28.2418C24.3407 28.2666 25.7653 28.014 27.0701 28.8734C27.7186 31.2537 27.9022 33.7603 28.4009 36.1615L28.4006 36.1616ZM15.0158 35.9285C12.2591 35.9858 9.49981 36.1082 6.74464 36.3035C6.39306 35.4155 6.03757 34.5287 5.69772 33.6432C5.15602 32.2317 4.85393 30.7199 4.06482 29.436C4.49974 27.9814 7.53902 28.0935 8.76043 28.0231C9.73445 27.9658 10.6798 27.9945 11.6356 28.221C12.2906 28.3747 12.8726 29.1065 13.3505 29.7407C13.4716 30.6574 13.9222 31.7929 14.0316 32.2148C14.3493 33.4375 14.6475 34.6967 15.016 35.9287L15.0158 35.9285Z" fill="white" stroke="white"/>
<path d="M15.363 37.0121L6.86914 36.6162C9.69354 36.8636 12.5271 36.9496 15.363 37.0121Z" fill="white" stroke="white"/>
<path d="M37.1405 42.989C34.3995 41.666 29.9371 44.5555 30.9708 47.7196C30.9825 47.7548 31.0099 47.7769 31.0411 47.7899C30.8732 50.5323 32.8746 53.7266 34.5714 55.5781C36.9439 58.1668 40.784 57.1784 41.8558 54.0025C43.24 49.9072 40.9039 44.8052 37.1405 42.9888L37.1405 42.989ZM40.7294 53.694C40.3426 55.4584 38.7866 56.0522 37.1485 55.8243C35.6966 55.6225 34.634 53.9049 33.9569 52.789C32.6769 50.6742 31.9216 48.35 32.436 45.9436C32.6053 45.4618 32.7902 45.0008 33.0545 44.5971C33.1613 44.5112 33.2694 44.4239 33.3697 44.3471C35.3359 42.8431 37.5509 44.3653 38.9403 45.7495C40.8727 47.6754 41.2907 51.1365 40.7295 53.694H40.7294Z" fill="white" stroke="white"/>
<path d="M59.2411 46.2258C56.5001 44.9028 52.0377 47.7923 53.0727 50.9564C53.0845 50.9916 53.1118 51.0137 53.1431 51.0268C52.9751 53.7691 54.9765 56.9634 56.6719 58.8149C59.0445 61.4036 62.8846 60.4152 63.9564 57.2393C65.3393 53.1467 63.0045 48.0421 59.2411 46.2256L59.2411 46.2258ZM62.83 56.9321C62.4432 58.6966 60.8872 59.2903 59.2491 59.0625C57.7946 58.8606 56.7346 57.1431 56.0575 56.0271C54.7775 53.9124 54.0222 51.5882 54.5366 49.1817C54.7059 48.6999 54.8908 48.239 55.1551 47.8353C55.2619 47.7493 55.37 47.6621 55.4703 47.5826C57.4365 46.0787 59.6515 47.6009 61.0409 48.9851C62.9746 50.9122 63.39 54.3734 62.8301 56.9322L62.83 56.9321Z" fill="white" stroke="white"/>
<path d="M78.7362 50.1928C75.9952 48.8697 71.5328 51.7592 72.5665 54.9234C72.5782 54.9585 72.6056 54.9807 72.6368 54.9937C72.4689 57.736 74.4703 60.9304 76.1657 62.7818C78.5383 65.3705 82.3784 64.3822 83.4502 61.2062C84.8356 57.1109 82.4996 52.009 78.7362 50.1925L78.7362 50.1928ZM82.3265 60.8964C81.9397 62.6608 80.3836 63.2546 78.7456 63.0267C77.291 62.8249 76.2311 61.1073 75.554 59.9914C74.274 57.8766 73.5187 55.5524 74.033 53.146C74.2023 52.6642 74.3872 52.2032 74.6516 51.7995C74.7584 51.7136 74.8664 51.6263 74.9667 51.5469C76.933 50.0429 79.148 51.5651 80.5374 52.9493C82.4685 54.8765 82.8865 58.339 82.3266 60.8964L82.3265 60.8964Z" fill="white" stroke="white"/>
</svg>
